<?xml version="1.0" encoding="utf-8"?>
<!-- Generator: Adobe Illustrator 26.1.0, SVG Export Plug-In . SVG Version: 6.00 Build 0)  -->
<svg version="1.1" id="Layer_1" xmlns="http://www.w3.org/2000/svg" xmlns:xlink="http://www.w3.org/1999/xlink" x="0px" y="0px"
	 viewBox="0 0 100 100" style="enable-background:new 0 0 100 100;" xml:space="preserve">
<style type="text/css">
	.st0{fill:none;}
	.st1{fill-rule:evenodd;clip-rule:evenodd;fill:#CCCCCC;}
	.st2{fill-rule:evenodd;clip-rule:evenodd;fill:#19124F;}
</style>
<circle class="st0" cx="50" cy="50" r="58.2"/>
<path class="st1" d="M50,84.8L50,84.8c-3,0-25.1-0.2-26.3-0.3c0-4,1.1-41.1,1.2-43c0-0.4,0-0.7,0-1c4.7-11.8,3.1-19.8,2.1-23
	c1.3-0.4,5.8-1,8.9-1.5H36c1.1-0.2,2.2-0.3,3.2-0.5c8.1-0.5,14.4-0.5,21.4,0c1,0.2,2.2,0.3,3.4,0.5h0.2c3,0.5,7.3,1.1,8.6,1.5
	c-1,3.2-2.7,11.2,2.1,23.1c0,0.3-0.1,0.6,0,0.9c0.1,1.9,1.2,38.9,1.2,43C74.5,84.6,52.8,84.8,50,84.8L50,84.8z M23,38.6
	c-0.2,0-0.3,0-0.4,0c-0.7,0-5,0.3-6.9,0.3c-1-2.2-4.7-10.4-6-13.7c1.5-0.7,4.8-2.2,8.1-3.6l0.4-0.2l0,0c3.5-1.5,6.8-3,8.1-3.6
	c1,3,2.4,10.5-1.7,21.4c0,0,0,0,0-0.1L24.5,39C24,38.8,23.5,38.6,23,38.6L23,38.6z M77.4,38.6c0.7,0,5,0.3,6.9,0.3l0,0
	c1-2.2,4.7-10.4,6-13.7c-1.5-0.7-4.9-2.2-8.1-3.6l-0.3-0.1c-2.7-1.2-5.4-2.4-8.1-3.6c-1,3-2.4,10.5,1.7,21.4c0,0,0-0.1,0.1-0.1
	l0.1-0.1c0.3-0.3,0.8-0.5,1.3-0.5C77.2,38.6,77.3,38.6,77.4,38.6z"/>
<path class="st2" d="M35.1,27.7c0.2-0.1,0.4-0.1,0.7-0.1h1v-1.5h-1c-0.5,0-0.9,0.1-1.3,0.3L35.1,27.7L35.1,27.7z M65.6,28.4
	c0.1,0.2,0.1,0.4,0.1,0.7v1h1.5v-1c0-0.5-0.1-0.9-0.3-1.3L65.6,28.4L65.6,28.4z M64.9,66.7c-0.2,0.1-0.4,0.1-0.7,0.1h-1v1.5h1
	c0.5,0,0.9-0.1,1.3-0.3L64.9,66.7L64.9,66.7z M36.8,66.8v1.5h-1c-0.5,0-0.9-0.1-1.3-0.3l0.7-1.3c0.2,0.1,0.4,0.1,0.7,0.1
	C35.8,66.8,36.8,66.8,36.8,66.8z M38.3,66.8v1.5h2v-1.5H38.3z M41.9,66.8v1.5h2v-1.5H41.9z M45.4,66.8v1.5h2v-1.5H45.4z M49,66.8
	v1.5h2v-1.5H49z M52.5,66.8v1.5h2v-1.5H52.5z M56.1,66.8v1.5h2v-1.5H56.1z M59.6,66.8v1.5h2v-1.5H59.6z M65.6,66l1.3,0.7
	c0.2-0.4,0.3-0.8,0.3-1.3v-1h-1.5v1C65.7,65.6,65.7,65.8,65.6,66L65.6,66z M65.7,62.8h1.5v-2.1h-1.5V62.8z M65.7,59.1h1.5V57h-1.5
	V59.1z M65.7,55.5h1.5v-2.1h-1.5V55.5z M65.7,51.9h1.5v-2.1h-1.5V51.9z M65.7,48.2h1.5v-2.1h-1.5V48.2z M65.7,44.6h1.5v-2.1h-1.5
	V44.6z M65.7,41h1.5v-2.1h-1.5V41z M65.7,37.3h1.5v-2.1h-1.5V37.3L65.7,37.3z M65.7,33.7h1.5v-2.1h-1.5V33.7L65.7,33.7z M64.9,27.7
	l0.7-1.3c-0.4-0.2-0.9-0.3-1.3-0.3h-1v1.4h1C64.4,27.5,64.7,27.6,64.9,27.7z M61.7,27.5V26h-2v1.5H61.7z M58.1,27.5V26h-2v1.5H58.1z
	 M54.6,27.5V26h-2v1.5H54.6z M51,27.5V26h-2v1.5H51z M47.5,27.5V26h-2v1.5H47.5z M43.9,27.5V26h-2v1.5H43.9z M40.4,27.5V26h-2v1.5
	H40.4z M34.4,28.4l-1.3-0.7c-0.2,0.4-0.3,0.9-0.3,1.3v1h1.5v-1C34.3,28.8,34.3,28.6,34.4,28.4L34.4,28.4z M34.3,31.6h-1.5v2.1h1.5
	V31.6z M34.3,35.3h-1.5v2.1h1.5V35.3L34.3,35.3z M34.3,38.9h-1.5V41h1.5V38.9z M34.3,42.5h-1.5v2.1h1.5V42.5z M34.3,46.2h-1.5v2.1
	h1.5V46.2z M34.3,49.8h-1.5v2.1h1.5V49.8z M34.3,53.4h-1.5v2.1h1.5V53.4z M34.3,57h-1.5v2.1h1.5V57z M34.3,60.7h-1.5v2.1h1.5
	C34.3,62.8,34.3,60.7,34.3,60.7z M34.3,64.3h-1.5v1c0,0.5,0.1,0.9,0.3,1.3l1.3-0.7c-0.1-0.2-0.1-0.4-0.1-0.7V64.3L34.3,64.3z"/>
</svg>
