<?xml version="1.0" encoding="utf-8"?>
<!-- Generator: Adobe Illustrator 26.1.0, SVG Export Plug-In . SVG Version: 6.00 Build 0)  -->
<svg version="1.1" id="Layer_1" xmlns="http://www.w3.org/2000/svg" xmlns:xlink="http://www.w3.org/1999/xlink" x="0px" y="0px"
	 viewBox="0 0 100 100" style="enable-background:new 0 0 100 100;" xml:space="preserve">
<style type="text/css">
	.st0{fill:none;}
	.st1{fill-rule:evenodd;clip-rule:evenodd;fill:#19124F;}
	.st2{fill-rule:evenodd;clip-rule:evenodd;fill:#FF7300;}
</style>
<circle class="st0" cx="50" cy="50" r="57.5"/>
<path class="st1" d="M50,84.8L50,84.8c-3,0-25.1-0.2-26.3-0.3c0-4,1.1-41.3,1.2-43.2c0-0.4,0-0.7,0-1C29.6,28.5,28,20.4,27,17.2
	c1.3-0.4,5.8-1.1,8.9-1.5H36c1.1-0.2,2.2-0.3,3.2-0.5c0.5,2.5,2.7,9.8,10.6,9.8H50c7.9,0,10.1-7.3,10.6-9.8c1,0.2,2.2,0.3,3.4,0.5
	h0.2c3,0.5,7.3,1.1,8.6,1.5c-1,3.2-2.7,11.3,2.1,23.2c0,0.3-0.1,0.6,0,0.9c0.1,1.9,1.2,39.1,1.2,43.2C74.5,84.6,52.8,84.8,50,84.8
	L50,84.8z M23,38.4c-0.1,0-0.3,0-0.4,0c-0.7,0-5,0.3-6.9,0.3c-1-2.2-4.7-10.4-6-13.8c1.5-0.7,4.8-2.2,8.1-3.6l0.4-0.2
	c3.5-1.6,6.8-3,8.1-3.6c1,3,2.4,10.5-1.7,21.5c0,0,0,0,0-0.1l-0.1-0.1C24,38.6,23.5,38.4,23,38.4z M77.4,38.4c0.7,0,5,0.3,6.9,0.3
	l0,0c1-2.2,4.7-10.4,6-13.8c-1.5-0.7-4.9-2.2-8.1-3.6l-0.4-0.2c-2.7-1.2-5.4-2.4-8.1-3.6c-1,3-2.4,10.5,1.7,21.5c0,0,0-0.1,0.1-0.1
	l0.1-0.1c0.3-0.3,0.8-0.5,1.3-0.5C77.2,38.4,77.3,38.4,77.4,38.4z"/>
<path class="st2" d="M55.3,44.2c0.2,0.1,0.4,0.1,0.7,0.1h0.9v1.5H56c-0.5,0-0.9-0.1-1.3-0.3L55.3,44.2L55.3,44.2z M58.2,44.4v1.5H60
	v-1.5H58.2z M61.3,44.4v1.5h1.8v-1.5H61.3z M64.4,44.4v1.5h0.9c0.5,0,0.9-0.1,1.3-0.3l-0.7-1.3c-0.2,0.1-0.4,0.1-0.7,0.1H64.4z
	 M66.7,43.5l1.4,0.7c0.2-0.4,0.3-0.8,0.3-1.3v-1h-1.5v1C66.8,43.1,66.8,43.3,66.7,43.5z M66.8,40.4h1.5v-2h-1.5V40.4z M66.8,36.9
	h1.5v-2h-1.5V36.9z M66.8,33.4h1.5v-1c0-0.5-0.1-0.9-0.3-1.3l-1.3,0.7c0.1,0.2,0.1,0.4,0.1,0.7C66.8,32.4,66.8,33.4,66.8,33.4z
	 M66,31.1l0.7-1.3c-0.4-0.2-0.9-0.3-1.3-0.3h-0.9V31h0.9C65.6,30.9,65.8,31,66,31.1L66,31.1z M63.1,30.9v-1.5h-1.8v1.5H63.1z
	 M60,30.9v-1.5h-1.8v1.5H60z M56.9,30.9H56c-0.2,0-0.5,0.1-0.7,0.1l-0.7-1.4c0.4-0.2,0.9-0.3,1.3-0.3h0.9
	C56.9,29.4,56.9,30.9,56.9,30.9z M54.6,31.8l-1.3-0.7c-0.2,0.4-0.3,0.8-0.3,1.3v1h1.5v-1C54.5,32.2,54.5,32,54.6,31.8z M54.5,34.9
	H53v2h1.5V34.9z M54.5,38.4H53v2h1.5V38.4z M54.5,41.9H53v1c0,0.5,0.1,0.9,0.3,1.3l1.4-0.7c-0.2-0.2-0.2-0.4-0.2-0.6V41.9z"/>
</svg>
