<?xml version="1.0" encoding="utf-8"?>
<!-- Generator: Adobe Illustrator 26.1.0, SVG Export Plug-In . SVG Version: 6.00 Build 0)  -->
<svg version="1.1" id="Layer_1" xmlns="http://www.w3.org/2000/svg" xmlns:xlink="http://www.w3.org/1999/xlink" x="0px" y="0px"
	 viewBox="0 0 100 100" style="enable-background:new 0 0 100 100;" xml:space="preserve">
<style type="text/css">
	.st0{fill:none;}
	.st1{fill-rule:evenodd;clip-rule:evenodd;fill:#19124F;}
	.st2{fill-rule:evenodd;clip-rule:evenodd;fill:#FF7300;}
</style>
<circle class="st0" cx="50" cy="50" r="57.5"/>
<path class="st1" d="M50,84.8L50,84.8c-3,0-25.1-0.2-26.3-0.3c0-4,1.1-41.3,1.2-43.2c0-0.4,0-0.7,0-1C29.6,28.5,28,20.4,27,17.2
	c1.3-0.4,5.8-1.1,8.9-1.5H36c1.1-0.2,2.2-0.3,3.2-0.5c0.5,2.5,2.7,9.8,10.6,9.8H50c7.9,0,10.1-7.3,10.6-9.8c1,0.2,2.2,0.3,3.4,0.5
	h0.2c3,0.5,7.3,1.1,8.6,1.5c-1,3.2-2.7,11.3,2.1,23.2c0,0.3-0.1,0.6,0,0.9c0.1,1.9,1.2,39.1,1.2,43.2C74.5,84.6,52.8,84.8,50,84.8
	L50,84.8z M23,38.4c-0.2,0-0.3,0-0.4,0c-0.7,0-5,0.3-6.9,0.3c-1-2.2-4.7-10.4-6-13.8c1.5-0.7,4.8-2.2,8.1-3.6l0.4-0.2
	c3.5-1.6,6.8-3,8.1-3.6c1,3,2.4,10.5-1.7,21.5c0,0,0,0,0-0.1l-0.1-0.1C24,38.6,23.5,38.4,23,38.4z M77.4,38.4c0.7,0,5,0.3,6.9,0.3
	l0,0c1-2.2,4.7-10.4,6-13.8c-1.5-0.7-4.9-2.2-8.1-3.6l-0.4-0.2c-3.5-1.6-6.8-3-8.1-3.6c-1,3-2.4,10.5,1.7,21.5c0,0,0-0.1,0.1-0.1
	l0.1-0.1c0.3-0.3,0.8-0.5,1.3-0.5C77.2,38.4,77.3,38.4,77.4,38.4z"/>
<path class="st2" d="M35.1,33.3c0.2-0.1,0.4-0.1,0.7-0.1h1v-1.5h-1c-0.5,0-0.9,0.1-1.3,0.3L35.1,33.3L35.1,33.3z M65.6,34
	c0.1,0.2,0.1,0.4,0.1,0.7v1h1.5v-1c0-0.5-0.1-0.9-0.3-1.3C66.9,33.3,65.6,34,65.6,34z M64.9,72.3c-0.2,0.1-0.4,0.1-0.7,0.1h-1v1.5h1
	c0.5,0,0.9-0.1,1.3-0.3L64.9,72.3L64.9,72.3z M36.8,72.4v1.5h-1c-0.5,0-0.9-0.1-1.3-0.3l0.7-1.4c0.2,0.1,0.4,0.1,0.7,0.1
	C35.8,72.4,36.8,72.4,36.8,72.4z M38.3,72.4v1.5h2v-1.5H38.3z M41.9,72.4v1.5h2v-1.5H41.9z M45.4,72.4v1.5h2v-1.5H45.4z M49,72.4
	v1.5h2v-1.5H49z M52.5,72.4v1.5h2v-1.5H52.5z M56.1,72.4v1.5h2v-1.5H56.1z M59.6,72.4v1.5h2v-1.5H59.6z M65.6,71.6l1.3,0.7
	c0.2-0.4,0.3-0.8,0.3-1.3v-1h-1.5v1C65.7,71.1,65.7,71.4,65.6,71.6L65.6,71.6z M65.7,68.3h1.5v-2.1h-1.5V68.3z M65.7,64.7h1.5v-2.1
	h-1.5V64.7z M65.7,61.1h1.5V59h-1.5V61.1z M65.7,57.4h1.5v-2.1h-1.5V57.4z M65.7,53.8h1.5v-2.1h-1.5V53.8L65.7,53.8z M65.7,50.2h1.5
	v-2.1h-1.5V50.2z M65.7,46.5h1.5v-2h-1.5V46.5z M65.7,42.9h1.5v-2.1h-1.5V42.9z M65.7,39.3h1.5v-2.1h-1.5V39.3L65.7,39.3z
	 M64.9,33.3l0.7-1.4c-0.4-0.2-0.9-0.3-1.3-0.3h-1v1.5h1C64.4,33.1,64.7,33.2,64.9,33.3z M61.7,33.1v-1.5h-2v1.5H61.7z M58.1,33.1
	v-1.5h-2v1.5H58.1z M54.6,33.1v-1.5h-2v1.5H54.6z M51,33.1v-1.5h-2v1.5H51z M47.5,33.1v-1.5h-2v1.5H47.5z M43.9,33.1v-1.5h-2v1.5
	H43.9z M40.4,33.1v-1.5h-2v1.5H40.4z M34.4,34L33,33.3c-0.2,0.4-0.3,0.9-0.3,1.3v1h1.5v-1C34.3,34.4,34.3,34.2,34.4,34L34.4,34z
	 M34.3,37.2h-1.5v2.1h1.5V37.2L34.3,37.2z M34.3,40.8h-1.5v2.1h1.5V40.8z M34.3,44.5h-1.5v2h1.5V44.5z M34.3,48.1h-1.5v2.1h1.5V48.1
	z M34.3,51.7h-1.5v2.1h1.5V51.7L34.3,51.7z M34.3,55.4h-1.5v2.1h1.5V55.4z M34.3,59h-1.5v2.1h1.5V59z M34.3,62.6h-1.5v2.1h1.5V62.6z
	 M34.3,66.2h-1.5v2.1h1.5V66.2z M34.3,69.9h-1.5v1c0,0.5,0.1,0.9,0.3,1.3l1.3-0.7c-0.1-0.2-0.1-0.4-0.1-0.7V69.9L34.3,69.9z"/>
</svg>
