<svg xmlns="http://www.w3.org/2000/svg" version="1.1" xmlns:xlink="http://www.w3.org/1999/xlink" width="512" height="512" x="0" y="0" viewBox="0 0 512.005 512.005" style="enable-background:new 0 0 512 512" xml:space="preserve" class=""><g><path fill="#af9ffc" d="M394.613 302.673h-68.265v34.705h65.289c16.65 0 30.147 13.497 30.147 30.147s-13.497 30.147-30.147 30.147h-65.289v34.705h68.265c35.817 0 64.852-29.035 64.852-64.852s-29.035-64.852-64.852-64.852z" opacity="1" data-original="#bae1f6" class=""></path><path fill="#a593ff" d="M229.048 498.491c-72.408 0-143.711-58.698-143.711-131.106v-81.688c0-11.948 9.686-21.634 21.634-21.634h244.196c11.948 0 21.634 9.686 21.634 21.634v81.688c-.001 72.408-71.346 131.106-143.753 131.106z" opacity="1" data-original="#ceeafb" class=""></path><path fill="#af9ffc" d="M140.818 367.385v-81.688c0-11.948 9.686-21.634 21.634-21.634H106.97c-11.948 0-21.634 9.686-21.634 21.634v81.688c0 72.408 71.303 131.106 143.711 131.106 9.315 0 18.611-.978 27.742-2.826-61.833-12.511-115.971-65.187-115.971-128.28z" opacity="1" data-original="#bae1f6" class=""></path><path fill="#a593ff" d="M405.574 467.083v23.289c0 11.948-9.686 21.634-21.634 21.634H74.174c-11.972 0-21.668-9.724-21.634-21.696l.066-22.813z" opacity="1" data-original="#ceeafb" class=""></path><path fill="#af9ffc" d="m114.283 490.309.066-22.885-61.743.073-.066 22.813c-.035 11.972 9.661 21.696 21.634 21.696h61.743c-11.972-.001-21.668-9.725-21.634-21.697z" opacity="1" data-original="#bae1f6" class=""></path><path fill="#ff7300" d="M247.72 225.616c-2.342 0-4.678-.599-6.759-1.733-39.848-21.331-71.71-43.681-97.401-68.325-29.032-28.218-41.245-56.166-37.379-85.483 4.575-34.686 32.967-63.746 67.512-69.098 20.037-3.159 41.39 1.434 58.134 12.375 20.8-13.411 48.927-16.641 72.277-7.865 28.415 10.114 50.011 38.346 51.872 68.432 1.283 17.65-4.776 37.614-17.06 56.213-11.921 18.049-28.925 33.701-47.883 44.072-7.215 4.195-16.855.6-19.806-7.227-2.126-5.418-.756-11.281 3.575-15.299l.129-.119c17.903-17.703 40.123-39.722 40.024-65.964-.08-21.098-17.805-34.157-34.181-34.157-10.625 0-19.453 5.421-24.866 15.266-4.624 8.971-13.508 14.323-23.793 14.323-10.185 0-19.625-5.383-24.636-14.048-5.469-10.822-20.073-17.215-32.575-14.277-13.651 3.208-24.202 16.354-25.053 31.402-.853 15.072 10.061 30.363 22.006 44.649 20.846 23.372 48.031 45.766 83.091 68.45 6.293 3.771 9.211 10.396 7.441 16.937-1.797 6.649-7.967 11.476-14.669 11.476z" opacity="1" data-original="#fcf2d0" class=""></path><g fill="#fff"><ellipse cx="150.301" cy="357.281" rx="29.355" ry="23.377" fill="#ffffff" opacity="1" data-original="#ffffff"></ellipse><ellipse cx="309.414" cy="357.281" rx="29.355" ry="23.377" fill="#ffffff" opacity="1" data-original="#ffffff"></ellipse></g><g fill="#424952"><path d="M167.409 342.278a7.499 7.499 0 0 1-7.5-7.5v-12c0-4.143 3.357-7.5 7.5-7.5s7.5 3.357 7.5 7.5v12a7.5 7.5 0 0 1-7.5 7.5zM292.306 342.278a7.499 7.499 0 0 1-7.5-7.5v-12c0-4.143 3.357-7.5 7.5-7.5s7.5 3.357 7.5 7.5v12a7.5 7.5 0 0 1-7.5 7.5zM229.858 349.421a29.34 29.34 0 0 1-22.119-10.073 7.5 7.5 0 0 1 11.309-9.855c2.729 3.132 6.67 4.929 10.811 4.929s8.08-1.796 10.81-4.928a7.498 7.498 0 0 1 10.581-.728 7.5 7.5 0 0 1 .728 10.581 29.342 29.342 0 0 1-22.12 10.074z" fill="#52575d" opacity="1" data-original="#424952" class=""></path></g></g></svg>