<svg width="19" height="15" viewBox="0 0 19 15" fill="none" xmlns="http://www.w3.org/2000/svg">
<path fill-rule="evenodd" clip-rule="evenodd" d="M9.17631 11.0238C7.79227 11.0238 6.66618 9.92139 6.66618 8.56838C6.66618 7.21452 7.79227 6.11212 9.17631 6.11212C10.5603 6.11212 11.6864 7.21452 11.6864 8.56838C11.6864 9.92139 10.5603 11.0238 9.17631 11.0238ZM9.17538 5.09725C7.21834 5.09725 5.62657 6.65432 5.62657 8.56869C5.62657 10.4822 7.21834 12.0393 9.17538 12.0393C11.1324 12.0393 12.7242 10.4822 12.7242 8.56869C12.7242 6.65432 11.1324 5.09725 9.17538 5.09725ZM17.3118 12.2916C17.3118 13.0494 16.6816 13.6649 15.907 13.6649H2.44399C1.66931 13.6649 1.03918 13.0494 1.03918 12.2916V4.97615C1.03918 4.21921 1.66931 3.60282 2.44399 3.60282H4.35862C4.97749 3.60282 5.53665 3.22011 5.74958 2.64944L6.2516 1.30066C6.31392 1.13048 6.48184 1.01618 6.66707 1.01618H11.6839C11.8691 1.01618 12.037 1.13048 12.1002 1.30151L12.6014 2.65029C12.8143 3.22011 13.3735 3.60282 13.9923 3.60282H15.907C16.6816 3.60282 17.3118 4.21921 17.3118 4.97615V12.2916ZM15.9065 2.58749H13.9919C13.8075 2.58749 13.6405 2.47234 13.5764 2.30216L13.0761 0.954222C12.8649 0.383551 12.3049 0 11.6834 0H6.66662C6.04515 0 5.48513 0.383551 5.2748 0.953375L4.77364 2.30131C4.70959 2.47234 4.54253 2.58749 4.35817 2.58749H2.44354C1.09586 2.58749 6.10352e-05 3.6594 6.10352e-05 4.97601V12.2914C6.10352e-05 13.6089 1.09586 14.6799 2.44354 14.6799H15.9065C17.2542 14.6799 18.35 13.6089 18.35 12.2914V4.97601C18.35 3.6594 17.2542 2.58749 15.9065 2.58749Z" fill="white"/>
</svg>
