<svg width="306" height="306" viewBox="0 0 306 306" fill="none" xmlns="http://www.w3.org/2000/svg">
<circle cx="153.273" cy="142.892" r="95.8982" fill="#FF7300" fill-opacity="0.2"/>
<circle cx="63.3856" cy="78.1397" r="6.01071" fill="#FF7300" fill-opacity="0.2"/>
<circle cx="186.605" cy="35.7915" r="11.2018" fill="#FF7300" fill-opacity="0.2"/>
<circle cx="72.4016" cy="219.391" r="10.6554" fill="#FF7300" fill-opacity="0.2"/>
<circle cx="256.002" cy="194.256" r="10.6554" fill="#FF7300" fill-opacity="0.2"/>
<circle cx="235.237" cy="206.277" r="5.19107" fill="#FF7300" fill-opacity="0.2"/>
<path d="M158.751 51.6581C158.434 51.5907 158.434 51.1386 158.751 51.0712L163.541 50.0526C163.656 50.0281 163.747 49.9381 163.772 49.8228L164.803 45.0667C164.871 44.7515 165.321 44.7515 165.389 45.0667L166.421 49.8228C166.446 49.9381 166.536 50.0281 166.652 50.0526L171.441 51.0712C171.758 51.1386 171.758 51.5907 171.441 51.6581L166.652 52.6767C166.536 52.7012 166.446 52.7912 166.421 52.9065L165.389 57.6626C165.321 57.9778 164.871 57.9778 164.803 57.6626L163.772 52.9065C163.747 52.7912 163.656 52.7012 163.541 52.6767L158.751 51.6581Z" fill="#FF7300" fill-opacity="0.9"/>
<path d="M49.3002 149.515C49.4225 148.938 50.2471 148.938 50.3694 149.515L52.196 158.145C52.2405 158.355 52.4042 158.52 52.6142 158.566L61.1547 160.426C61.7281 160.551 61.7281 161.369 61.1547 161.494L52.6142 163.354C52.4042 163.4 52.2405 163.565 52.196 163.775L50.3694 172.405C50.2471 172.982 49.4225 172.982 49.3002 172.405L47.4736 163.775C47.4291 163.565 47.2654 163.4 47.0553 163.354L38.5149 161.494C37.9414 161.369 37.9414 160.551 38.5149 160.426L47.0553 158.566C47.2654 158.52 47.4291 158.355 47.4736 158.145L49.3002 149.515Z" fill="#FF7300" fill-opacity="0.9"/>
<path d="M238.978 80.6653C239.1 80.0876 239.924 80.0876 240.047 80.6653L241.112 85.6996C241.157 85.9099 241.321 86.0746 241.531 86.1203L246.527 87.2088C247.101 87.3338 247.101 88.1517 246.527 88.2767L241.531 89.3651C241.321 89.4109 241.157 89.5756 241.112 89.7859L240.047 94.8202C239.924 95.3979 239.1 95.3979 238.978 94.8202L237.912 89.7859C237.867 89.5756 237.704 89.4109 237.494 89.3651L232.497 88.2767C231.924 88.1517 231.924 87.3338 232.497 87.2088L237.494 86.1203C237.704 86.0746 237.867 85.9099 237.912 85.6996L238.978 80.6653Z" fill="#FF7300" fill-opacity="0.9"/>
<path d="M261.006 161.378L262.679 169.283L270.472 170.981L262.679 172.678L261.006 180.584L259.333 172.678L251.54 170.981L259.333 169.283L261.006 161.378Z" fill="white"/>
<path d="M207.643 99.4504L78.4124 148.902L106.007 225.675L122.673 233.052L143.437 237.424L164.475 236.604L176.77 234.418L187.698 231.14L205.73 221.85L221.03 209.829L222.211 208.302C228.879 199.683 234.792 190.504 239.882 180.868L207.643 99.4504Z" fill="#FF7300" fill-opacity="0.2"/>
<path d="M88.248 127.044L74.5873 119.394L193.162 74.587L186.878 90.1603L191.523 104.641L93.4391 142.071L88.248 127.044Z" fill="#FF7300" fill-opacity="0.5"/>
<path d="M105.461 225.401V225.401C117.417 231.515 130.362 235.463 143.696 237.063L144.029 237.103L153.535 237.103C160.656 237.103 167.756 236.345 174.717 234.842L177.073 234.333C184.515 232.727 191.7 230.103 198.426 226.536V226.536C203.675 223.753 208.608 220.414 213.143 216.577L214.615 215.332C218.551 212.001 222.202 208.35 225.532 204.414V204.414C230.195 198.904 234.2 192.869 237.466 186.432L240.428 180.594" stroke="#FF7300" stroke-opacity="0.9" stroke-width="2"/>
<path d="M77.364 147.761L106.007 225.93" stroke="#FF7300" stroke-opacity="0.9" stroke-width="2"/>
<path d="M208.78 99.4026L240.203 181.508" stroke="#FF7300" stroke-opacity="0.9" stroke-width="2"/>
<path d="M72.4464 119.621L194.843 73.6287" stroke="#FF7300" stroke-opacity="0.9" stroke-width="2"/>
<path d="M76.7312 149.17L207.059 98.9094L187.846 89.9867C187.294 89.7305 187.058 89.0731 187.32 88.5243L194.011 74.5239" stroke="#FF7300" stroke-opacity="0.9" stroke-width="2"/>
<path d="M73.5445 119.243L87.3212 126.63C87.8449 126.911 88.0483 127.558 87.7791 128.088L77.3642 148.582" stroke="#FF7300" stroke-opacity="0.9" stroke-width="2"/>
<path d="M72.9929 118.254L81.8699 140.444" stroke="#FF7300" stroke-opacity="0.9" stroke-width="2"/>
<path d="M87.9749 127.864L93.4391 143.164" stroke="#FF7300" stroke-opacity="0.9" stroke-width="2"/>
<path d="M187.425 89.6139L192.889 105.46" stroke="#FF7300" stroke-opacity="0.9" stroke-width="2"/>
<path d="M194.107 74.7797L201.95 96.3975" stroke="#FF7300" stroke-opacity="0.9" stroke-width="2"/>
<circle cx="128.684" cy="141.798" r="5.7375" fill="#FF7300" fill-opacity="0.5"/>
<circle cx="120.487" cy="112.291" r="4.09821" fill="#FF7300" fill-opacity="0.2"/>
<circle cx="164.748" cy="128.137" r="5.7375" fill="#FF7300" fill-opacity="0.5"/>
<circle cx="145.623" cy="103.001" r="4.09821" fill="#FF7300" fill-opacity="0.2"/>
</svg>
