<svg width="19" height="22" viewBox="0 0 19 22" fill="none" xmlns="http://www.w3.org/2000/svg">
<path fill-rule="evenodd" clip-rule="evenodd" d="M4.75965 5.75H3.43115C2.98859 5.75002 2.56246 5.91771 2.23859 6.21932C1.91471 6.52093 1.71714 6.93406 1.68565 7.3755L0.828653 19.3755C0.811558 19.6152 0.844008 19.8558 0.923983 20.0824C1.00396 20.309 1.12974 20.5167 1.2935 20.6926C1.45725 20.8684 1.65547 21.0087 1.87581 21.1046C2.09614 21.2005 2.33386 21.25 2.57415 21.25H16.4262C16.6664 21.2498 16.9041 21.2002 17.1243 21.1043C17.3446 21.0083 17.5427 20.8681 17.7065 20.6923C17.8702 20.5164 17.996 20.3088 18.076 20.0823C18.156 19.8557 18.1886 19.6152 18.1717 19.3755L17.3147 7.3755C17.2832 6.93406 17.0856 6.52093 16.7617 6.21932C16.4378 5.91771 16.0117 5.75002 15.5692 5.75H14.2502V5.5C14.2502 4.24022 13.7497 3.03204 12.8589 2.14124C11.9681 1.25044 10.7599 0.75 9.50015 0.75C6.97265 0.75 4.63665 2.763 4.75015 5.5L4.75965 5.75ZM14.2502 7.25V11C14.2502 11.1989 14.1711 11.3897 14.0305 11.5303C13.8898 11.671 13.6991 11.75 13.5002 11.75C13.3012 11.75 13.1105 11.671 12.9698 11.5303C12.8292 11.3897 12.7502 11.1989 12.7502 11V7.25H6.25015V11C6.25015 11.1989 6.17113 11.3897 6.03048 11.5303C5.88983 11.671 5.69907 11.75 5.50015 11.75C5.30124 11.75 5.11048 11.671 4.96982 11.5303C4.82917 11.3897 4.75015 11.1989 4.75015 11C4.75015 11 4.81515 9.2475 4.79365 7.25H3.43115C3.36803 7.25009 3.30727 7.27406 3.26108 7.31709C3.2149 7.36012 3.1867 7.41904 3.18215 7.482L2.32465 19.482C2.32218 19.5163 2.3268 19.5507 2.33822 19.5831C2.34964 19.6155 2.36761 19.6452 2.39103 19.6703C2.41444 19.6955 2.44278 19.7155 2.47429 19.7293C2.5058 19.743 2.53979 19.75 2.57415 19.75H16.4262C16.4605 19.7499 16.4944 19.7427 16.5258 19.729C16.5573 19.7152 16.5856 19.6951 16.6089 19.67C16.6323 19.6449 16.6503 19.6153 16.6618 19.5829C16.6733 19.5506 16.678 19.5162 16.6757 19.482L15.8182 7.482C15.8136 7.41904 15.7854 7.36012 15.7392 7.31709C15.693 7.27406 15.6323 7.25009 15.5692 7.25H14.2502ZM12.7502 5.75V5.5C12.7502 4.63805 12.4077 3.8114 11.7983 3.2019C11.1888 2.59241 10.3621 2.25 9.50015 2.25C8.6382 2.25 7.81155 2.59241 7.20206 3.2019C6.59256 3.8114 6.25015 4.63805 6.25015 5.5V5.75H12.7502Z" fill="white"/>
</svg>
