<svg width="44" height="44" viewBox="0 0 44 44" fill="none" xmlns="http://www.w3.org/2000/svg">
<mask id="mask0_1353_7645" style="mask-type:luminance" maskUnits="userSpaceOnUse" x="5" y="1" width="42" height="42">
<path fill-rule="evenodd" clip-rule="evenodd" d="M25.434 40.1676C27.2771 38.6999 29.1196 37.0417 30.8439 35.2215C35.8729 29.9132 38.9231 24.3211 38.9231 18.6153C38.9231 9.26898 31.3464 1.69226 22 1.69226C12.6537 1.69226 5.07693 9.26898 5.07693 18.6153C5.07693 24.3211 8.12715 29.9132 13.1561 35.2215C14.8805 37.0417 16.723 38.6999 18.566 40.1676C19.2121 40.682 19.8133 41.1368 20.3547 41.5278C20.6847 41.7661 20.9252 41.9327 21.0613 42.0234C21.6297 42.4024 22.3703 42.4024 22.9387 42.0234C23.0749 41.9327 23.3153 41.7661 23.6453 41.5278C24.1868 41.1368 24.7879 40.682 25.434 40.1676ZM15.2308 18.6153C15.2308 22.3539 18.2615 25.3846 22 25.3846C25.7386 25.3846 28.7692 22.3539 28.7692 18.6153C28.7692 14.8768 25.7386 11.8461 22 11.8461C18.2615 11.8461 15.2308 14.8768 15.2308 18.6153Z" fill="white"/>
</mask>
<g mask="url(#mask0_1353_7645)">
<rect width="44" height="44" fill="#999999"/>
</g>
</svg>
