<svg width="200" height="200" viewBox="0 0 200 200" fill="none" xmlns="http://www.w3.org/2000/svg">
<g clip-path="url(#clip0_778_6321)">
<path d="M180.143 193.04L157.083 48.6573C156.861 47.2728 156.154 46.0124 155.087 45.1025C154.02 44.1926 152.664 43.6928 151.262 43.6929H48.7375C47.3354 43.6928 45.9793 44.1926 44.9125 45.1025C43.8457 46.0124 43.1383 47.2728 42.9171 48.6573L19.8574 193.04C19.2854 196.621 22.0516 199.864 25.6778 199.864H174.322C177.948 199.864 180.715 196.621 180.143 193.04Z" fill="#FF7300" fill-opacity="0.82"/>
<path d="M179.032 186.086C165.387 184.996 151.837 182.692 138.862 178.345C121.685 172.591 105.572 163.264 92.9931 150.112C81.8921 138.505 73.9329 124.37 68.4808 109.331C60.911 88.4529 58.1258 66.0215 58.1968 43.6929H48.7375C47.3354 43.6928 45.9793 44.1926 44.9125 45.1025C43.8457 46.0124 43.1383 47.2728 42.9171 48.6573L19.8574 193.04C19.2854 196.621 22.0516 199.864 25.6778 199.864H174.322C177.948 199.864 180.714 196.621 180.143 193.04L179.032 186.086Z" fill="#FFA862" fill-opacity="0.81"/>
<path d="M85.8275 56.5737C85.7988 54.4795 84.5134 52.6199 82.5528 51.8738C80.6046 51.133 78.2838 51.7556 76.9653 53.3678C75.6371 54.9919 75.421 57.3216 76.5058 59.1366C77.5879 60.9481 79.7015 61.8654 81.7639 61.4941C84.1174 61.0707 85.7949 58.9272 85.8275 56.5737C85.839 55.7539 84.565 55.7535 84.554 56.5737C84.5328 58.1215 83.5803 59.5547 82.1053 60.086C80.6073 60.6258 78.9078 60.1601 77.9015 58.9236C76.9225 57.7207 76.8127 55.9801 77.6051 54.6537C78.3901 53.34 79.971 52.6019 81.4835 52.892C83.2593 53.2324 84.5288 54.7728 84.5535 56.5737C84.565 57.3926 85.8385 57.3952 85.8275 56.5737ZM124.199 56.5737C124.17 54.4795 122.885 52.6199 120.924 51.8738C118.976 51.133 116.655 51.7556 115.336 53.3678C114.008 54.9919 113.792 57.3216 114.877 59.1366C115.959 60.9481 118.073 61.8654 120.135 61.4941C122.489 61.0707 124.167 58.9272 124.199 56.5737C124.21 55.7539 122.936 55.7535 122.925 56.5737C122.904 58.1215 121.951 59.5547 120.476 60.086C118.978 60.6258 117.279 60.1601 116.273 58.9236C115.294 57.7207 115.184 55.9801 115.976 54.6537C116.761 53.34 118.342 52.6019 119.855 52.892C121.631 53.2324 122.9 54.7728 122.925 56.5737C122.936 57.3926 124.21 57.3952 124.199 56.5737Z" fill="black"/>
<path d="M119.822 56.5737V22.1584C119.822 18.3586 119.575 14.7245 117.919 11.2003C115.077 5.15056 109.163 0.876209 102.544 0.0233681C95.8149 -0.844025 88.9402 1.86663 84.6539 7.1367C81.5243 10.9842 80.1776 15.6069 80.1776 20.5114V31.1737C80.1776 39.471 80.0669 47.7767 80.1776 56.0736C80.1798 56.2403 80.1776 56.407 80.1776 56.5737C80.1776 57.3935 81.4511 57.3943 81.4511 56.5737V23.2591C81.4511 20.0166 81.3718 16.8544 82.4279 13.7191C84.6341 7.16889 90.5316 2.29349 97.365 1.31013C104.3 0.312205 111.401 3.44267 115.335 9.23881C117.805 12.8786 118.548 16.9342 118.548 21.2359V32.3736C118.548 40.2811 118.434 48.1983 118.548 56.1054C118.551 56.2615 118.548 56.4176 118.548 56.5737C118.549 57.3935 119.822 57.3943 119.822 56.5737Z" fill="black"/>
<path d="M80.6223 122.324C83.7657 122.324 86.3139 119.776 86.3139 116.633C86.3139 113.489 83.7657 110.941 80.6223 110.941C77.4789 110.941 74.9307 113.489 74.9307 116.633C74.9307 119.776 77.4789 122.324 80.6223 122.324Z" fill="black"/>
<path d="M80.0424 114.602C80.0424 114.946 79.906 115.275 79.6631 115.518C79.4202 115.761 79.0908 115.897 78.7473 115.897C78.4038 115.897 78.0744 115.761 77.8315 115.518C77.5886 115.275 77.4521 114.946 77.4521 114.602C77.4521 114.259 77.5886 113.929 77.8315 113.686C78.0744 113.443 78.4038 113.307 78.7473 113.307C79.0908 113.307 79.4202 113.443 79.6631 113.686C79.906 113.929 80.0424 114.259 80.0424 114.602ZM84.2952 117.976C84.2952 118.552 84.0661 119.105 83.6583 119.513C83.2505 119.921 82.6974 120.15 82.1207 120.15C81.544 120.15 80.9909 119.921 80.5832 119.513C80.1754 119.105 79.9463 118.552 79.9463 117.976C79.9463 117.399 80.1754 116.846 80.5832 116.438C80.9909 116.03 81.544 115.801 82.1207 115.801C82.6974 115.801 83.2505 116.03 83.6583 116.438C84.0661 116.846 84.2952 117.399 84.2952 117.976Z" fill="white"/>
<path d="M125.069 116.633C125.069 119.777 122.52 122.324 119.377 122.324C116.233 122.324 113.686 119.777 113.686 116.633C113.686 113.49 116.234 110.941 119.377 110.941C122.521 110.941 125.069 113.489 125.069 116.633Z" fill="black"/>
<path d="M118.797 114.602C118.797 114.946 118.661 115.275 118.418 115.518C118.175 115.761 117.846 115.897 117.502 115.897C117.159 115.897 116.829 115.761 116.586 115.518C116.343 115.275 116.207 114.946 116.207 114.602C116.207 114.259 116.343 113.929 116.586 113.686C116.829 113.443 117.159 113.307 117.502 113.307C117.846 113.307 118.175 113.443 118.418 113.686C118.661 113.929 118.797 114.259 118.797 114.602ZM123.05 117.976C123.05 118.552 122.821 119.105 122.413 119.513C122.005 119.921 121.452 120.15 120.875 120.15C120.299 120.15 119.745 119.921 119.338 119.513C118.93 119.105 118.701 118.552 118.701 117.976C118.701 117.399 118.93 116.846 119.338 116.438C119.745 116.03 120.299 115.801 120.875 115.801C121.452 115.801 122.005 116.03 122.413 116.438C122.821 116.846 123.05 117.399 123.05 117.976Z" fill="white"/>
<path d="M91.4746 123.629C91.9103 125.477 92.8289 127.733 94.6739 128.589C96.4206 129.399 98.0945 128.487 99.1502 127.044C99.8836 126.041 100.328 124.829 100.61 123.629C100.798 122.832 99.5705 122.492 99.3822 123.29C99.1171 124.414 98.7154 125.56 97.9922 126.478C97.5138 127.085 96.8338 127.638 96.0427 127.638C95.2511 127.638 94.5716 127.085 94.0927 126.478C93.3695 125.56 92.9678 124.414 92.7028 123.29C92.5145 122.493 91.2863 122.83 91.4746 123.629Z" fill="black"/>
<path d="M99.3897 123.629C99.8254 125.477 100.744 127.733 102.589 128.589C104.336 129.399 106.01 128.487 107.065 127.044C107.799 126.041 108.243 124.829 108.525 123.629C108.713 122.832 107.485 122.492 107.297 123.29C107.032 124.414 106.63 125.56 105.907 126.478C105.429 127.085 104.749 127.638 103.958 127.638C103.166 127.638 102.487 127.085 102.008 126.478C101.285 125.56 100.883 124.414 100.618 123.29C100.43 122.493 99.2014 122.83 99.3897 123.629Z" fill="black"/>
<path d="M79.4234 125.867C79.4234 127.567 77.2402 128.945 74.5472 128.945C71.8542 128.945 69.6709 127.567 69.6709 125.867C69.6709 124.168 71.8542 122.79 74.5472 122.79C77.2402 122.79 79.4234 124.167 79.4234 125.867ZM130.329 125.867C130.329 127.567 128.146 128.945 125.453 128.945C122.76 128.945 120.577 127.567 120.577 125.867C120.577 124.168 122.76 122.79 125.453 122.79C128.146 122.79 130.329 124.167 130.329 125.867Z" fill="#FFA1BC"/>
<path d="M151.161 53.2152C151.011 53.1935 150.874 53.1216 150.771 53.0113C150.668 52.901 150.606 52.7589 150.594 52.6085C150.424 50.1721 149.92 48.4055 149.324 48.4055C148.728 48.4055 148.223 50.1725 148.053 52.6085C148.041 52.7589 147.979 52.901 147.876 53.0113C147.773 53.1216 147.636 53.1935 147.487 53.2152C146.069 53.4304 145.09 53.8864 145.09 54.4151C145.09 54.9439 146.068 55.3998 147.487 55.615C147.636 55.6367 147.773 55.7087 147.876 55.819C147.979 55.9293 148.041 56.0714 148.053 56.2218C148.223 58.6577 148.728 60.4247 149.324 60.4247C149.92 60.4247 150.424 58.6577 150.594 56.2218C150.605 56.0713 150.668 55.9291 150.771 55.8188C150.874 55.7084 151.011 55.6366 151.161 55.615C152.579 55.3998 153.557 54.9439 153.557 54.4151C153.557 53.8868 152.579 53.4304 151.161 53.2152ZM142.055 66.343C141.815 66.3082 141.593 66.1925 141.428 66.0149C141.262 65.8373 141.162 65.6085 141.144 65.3662C140.869 61.4447 140.058 58.6004 139.098 58.6004C138.138 58.6004 137.327 61.4447 137.053 65.3662C137.035 65.6085 136.935 65.8373 136.769 66.0149C136.603 66.1925 136.382 66.3082 136.141 66.343C133.858 66.6896 132.283 67.4238 132.283 68.2749C132.283 69.126 133.858 69.8602 136.141 70.2068C136.382 70.2417 136.603 70.3575 136.769 70.5351C136.934 70.7126 137.035 70.9414 137.053 71.1835C137.327 75.1051 138.138 77.9494 139.098 77.9494C140.058 77.9494 140.869 75.1051 141.144 71.1835C141.162 70.9413 141.262 70.7125 141.428 70.5349C141.593 70.3573 141.815 70.2416 142.055 70.2068C144.338 69.8602 145.913 69.126 145.913 68.2749C145.913 67.4238 144.338 66.69 142.055 66.343Z" fill="white"/>
<g clip-path="url(#clip1_778_6321)">
<path d="M154.283 163.025C153.454 163.025 152.782 162.353 152.782 161.523V159.518C152.782 158.689 153.454 158.016 154.283 158.016C155.112 158.016 155.785 158.689 155.785 159.518V161.523C155.785 162.353 155.113 163.025 154.283 163.025ZM154.283 171.246C153.454 171.246 152.782 170.573 152.782 169.744V167.738C152.782 166.909 153.454 166.237 154.283 166.237C155.112 166.237 155.785 166.909 155.785 167.738V169.744C155.785 170.573 155.113 171.246 154.283 171.246ZM150.773 166.132H148.767C147.938 166.132 147.266 165.46 147.266 164.631C147.266 163.802 147.938 163.13 148.767 163.13H150.773C151.602 163.13 152.274 163.802 152.274 164.631C152.274 165.46 151.602 166.132 150.773 166.132ZM159.799 166.132H157.793C156.964 166.132 156.292 165.46 156.292 164.631C156.292 163.802 156.964 163.13 157.793 163.13H159.799C160.628 163.13 161.3 163.802 161.3 164.631C161.3 165.46 160.628 166.132 159.799 166.132Z" fill="#FFE733"/>
<path d="M171.11 155.009C170.28 155.009 169.608 154.336 169.608 153.507V151.501C169.608 150.672 170.28 150 171.11 150C171.939 150 172.611 150.672 172.611 151.501V153.507C172.611 154.337 171.939 155.009 171.11 155.009ZM171.11 163.229C170.28 163.229 169.608 162.557 169.608 161.728V159.722C169.608 158.893 170.28 158.221 171.11 158.221C171.939 158.221 172.611 158.893 172.611 159.722V161.728C172.611 162.557 171.939 163.229 171.11 163.229ZM167.599 158.116H165.594C164.764 158.116 164.092 157.444 164.092 156.615C164.092 155.785 164.764 155.113 165.594 155.113H167.6C168.429 155.113 169.101 155.785 169.101 156.615C169.101 157.444 168.429 158.116 167.6 158.116L167.599 158.116ZM176.625 158.116H174.62C173.791 158.116 173.118 157.444 173.118 156.615C173.118 155.785 173.791 155.113 174.62 155.113H176.625C177.455 155.113 178.127 155.785 178.127 156.615C178.127 157.444 177.455 158.116 176.625 158.116ZM183.585 185.304C182.756 185.304 182.084 184.632 182.084 183.802V181.797C182.084 180.968 182.756 180.295 183.585 180.295C184.415 180.295 185.087 180.968 185.087 181.797V183.802C185.087 184.632 184.415 185.304 183.585 185.304ZM183.585 193.525C182.756 193.525 182.084 192.852 182.084 192.023V190.017C182.084 189.188 182.756 188.516 183.585 188.516C184.415 188.516 185.087 189.188 185.087 190.017V192.023C185.087 192.852 184.415 193.525 183.585 193.525ZM180.075 188.411H178.069C177.24 188.411 176.568 187.739 176.568 186.91C176.568 186.081 177.24 185.408 178.069 185.408H180.075C180.904 185.408 181.577 186.081 181.577 186.91C181.577 187.739 180.904 188.411 180.075 188.411ZM189.101 188.411H187.096C186.266 188.411 185.594 187.739 185.594 186.91C185.594 186.081 186.266 185.408 187.096 185.408H189.101C189.93 185.408 190.603 186.081 190.603 186.91C190.603 187.739 189.93 188.411 189.101 188.411H189.101Z" fill="#FFBC36"/>
<path d="M158.41 195.245C156.73 195.245 155.05 194.605 153.771 193.326L144.708 184.263C142.431 181.986 142.431 178.28 144.708 176.002C145.812 174.899 147.279 174.291 148.839 174.291C150.399 174.291 151.866 174.899 152.969 176.002L158.41 181.443L183.031 156.822C185.308 154.545 189.014 154.545 191.292 156.822C193.57 159.1 193.57 162.806 191.292 165.084L163.05 193.326C161.771 194.605 160.09 195.245 158.41 195.245L158.41 195.245Z" fill="#BDF052"/>
<path d="M183.031 156.822L168 171.853V188.375L191.292 165.083C193.57 162.806 193.57 159.1 191.292 156.822C189.014 154.544 185.308 154.545 183.031 156.822V156.822Z" fill="#93D632"/>
</g>
</g>
<defs>
<clipPath id="clip0_778_6321">
<rect width="200" height="200" fill="white"/>
</clipPath>
<clipPath id="clip1_778_6321">
<rect width="50" height="50" fill="white" transform="translate(143 150)"/>
</clipPath>
</defs>
</svg>
