<svg width="44" height="44" viewBox="0 0 44 44" fill="none" xmlns="http://www.w3.org/2000/svg">
<mask id="mask0_1353_7659" style="mask-type:luminance" maskUnits="userSpaceOnUse" x="3" y="3" width="44" height="44">
<path fill-rule="evenodd" clip-rule="evenodd" d="M3.38461 22C3.38461 32.281 11.719 40.6154 22 40.6154C32.281 40.6154 40.6154 32.281 40.6154 22C40.6154 11.719 32.281 3.38464 22 3.38464C11.719 3.38464 3.38461 11.719 3.38461 22ZM30.6926 15.0824C29.8357 14.1521 28.4153 14.1521 27.5584 15.0824L19.3279 24.0183L16.4416 20.8846C15.5847 19.9543 14.1643 19.9543 13.3074 20.8846C12.4873 21.775 12.4873 23.1921 13.3074 24.0825L17.7608 28.9177C18.6177 29.848 20.0381 29.848 20.895 28.9177L30.6926 18.2803C31.5127 17.3899 31.5127 15.9728 30.6926 15.0824Z" fill="white"/>
</mask>
<g mask="url(#mask0_1353_7659)">
<rect width="44" height="44" fill="#444444"/>
</g>
</svg>
