<svg width="200" height="200" viewBox="0 0 200 200" fill="none" xmlns="http://www.w3.org/2000/svg">
<g clip-path="url(#clip0_778_6372)">
<path d="M180.143 193.04L157.083 48.6573C156.861 47.2728 156.154 46.0124 155.087 45.1025C154.02 44.1926 152.664 43.6928 151.262 43.6929H48.7375C47.3354 43.6928 45.9793 44.1926 44.9125 45.1025C43.8457 46.0124 43.1383 47.2728 42.9171 48.6573L19.8574 193.04C19.2854 196.621 22.0516 199.864 25.6778 199.864H174.322C177.948 199.864 180.715 196.621 180.143 193.04Z" fill="#FF7300" fill-opacity="0.82"/>
<path d="M179.032 186.086C165.387 184.996 151.837 182.692 138.862 178.345C121.685 172.591 105.572 163.264 92.9931 150.112C81.8921 138.505 73.9329 124.37 68.4808 109.331C60.911 88.4529 58.1258 66.0215 58.1968 43.6929H48.7375C47.3354 43.6928 45.9793 44.1926 44.9125 45.1025C43.8457 46.0124 43.1383 47.2728 42.9171 48.6573L19.8574 193.04C19.2854 196.621 22.0516 199.864 25.6778 199.864H174.322C177.948 199.864 180.714 196.621 180.143 193.04L179.032 186.086Z" fill="#FFA862" fill-opacity="0.81"/>
<path d="M85.8275 56.5737C85.7988 54.4795 84.5134 52.6199 82.5528 51.8738C80.6046 51.133 78.2838 51.7556 76.9653 53.3678C75.6371 54.9919 75.421 57.3216 76.5058 59.1366C77.5879 60.9481 79.7015 61.8654 81.7639 61.4941C84.1174 61.0707 85.7949 58.9272 85.8275 56.5737C85.839 55.7539 84.565 55.7535 84.554 56.5737C84.5328 58.1215 83.5803 59.5547 82.1053 60.086C80.6073 60.6258 78.9078 60.1601 77.9015 58.9236C76.9225 57.7207 76.8127 55.9801 77.6051 54.6537C78.3901 53.34 79.971 52.6019 81.4835 52.892C83.2593 53.2324 84.5288 54.7728 84.5535 56.5737C84.565 57.3926 85.8385 57.3952 85.8275 56.5737ZM124.199 56.5737C124.17 54.4795 122.885 52.6199 120.924 51.8738C118.976 51.133 116.655 51.7556 115.336 53.3678C114.008 54.9919 113.792 57.3216 114.877 59.1366C115.959 60.9481 118.073 61.8654 120.135 61.4941C122.489 61.0707 124.167 58.9272 124.199 56.5737C124.21 55.7539 122.936 55.7535 122.925 56.5737C122.904 58.1215 121.951 59.5547 120.476 60.086C118.978 60.6258 117.279 60.1601 116.273 58.9236C115.294 57.7207 115.184 55.9801 115.976 54.6537C116.761 53.34 118.342 52.6019 119.855 52.892C121.631 53.2324 122.9 54.7728 122.925 56.5737C122.936 57.3926 124.21 57.3952 124.199 56.5737Z" fill="black"/>
<path d="M119.822 56.5737V22.1584C119.822 18.3586 119.575 14.7245 117.919 11.2003C115.077 5.15056 109.163 0.876209 102.544 0.0233681C95.8149 -0.844025 88.9402 1.86663 84.6539 7.1367C81.5243 10.9842 80.1776 15.6069 80.1776 20.5114V31.1737C80.1776 39.471 80.0669 47.7767 80.1776 56.0736C80.1798 56.2403 80.1776 56.407 80.1776 56.5737C80.1776 57.3935 81.4511 57.3943 81.4511 56.5737V23.2591C81.4511 20.0166 81.3718 16.8544 82.4279 13.7191C84.6341 7.16889 90.5316 2.29349 97.365 1.31013C104.3 0.312205 111.401 3.44267 115.335 9.23881C117.805 12.8786 118.548 16.9342 118.548 21.2359V32.3736C118.548 40.2811 118.434 48.1983 118.548 56.1054C118.551 56.2615 118.548 56.4176 118.548 56.5737C118.549 57.3935 119.822 57.3943 119.822 56.5737Z" fill="black"/>
<path d="M79.4234 125.867C79.4234 127.567 77.2402 128.945 74.5472 128.945C71.8542 128.945 69.6709 127.567 69.6709 125.867C69.6709 124.168 71.8542 122.79 74.5472 122.79C77.2402 122.79 79.4234 124.167 79.4234 125.867ZM130.329 125.867C130.329 127.567 128.146 128.945 125.453 128.945C122.76 128.945 120.577 127.567 120.577 125.867C120.577 124.168 122.76 122.79 125.453 122.79C128.146 122.79 130.329 124.167 130.329 125.867Z" fill="#FFA1BC"/>
<path d="M151.161 53.2152C151.011 53.1935 150.874 53.1216 150.771 53.0113C150.668 52.901 150.606 52.7589 150.594 52.6085C150.424 50.1721 149.92 48.4055 149.324 48.4055C148.728 48.4055 148.223 50.1725 148.053 52.6085C148.041 52.7589 147.979 52.901 147.876 53.0113C147.773 53.1216 147.636 53.1935 147.487 53.2152C146.069 53.4304 145.09 53.8864 145.09 54.4151C145.09 54.9439 146.068 55.3998 147.487 55.615C147.636 55.6367 147.773 55.7087 147.876 55.819C147.979 55.9293 148.041 56.0714 148.053 56.2218C148.223 58.6577 148.728 60.4247 149.324 60.4247C149.92 60.4247 150.424 58.6577 150.594 56.2218C150.605 56.0713 150.668 55.9291 150.771 55.8188C150.874 55.7084 151.011 55.6366 151.161 55.615C152.579 55.3998 153.557 54.9439 153.557 54.4151C153.557 53.8868 152.579 53.4304 151.161 53.2152ZM142.055 66.343C141.815 66.3082 141.593 66.1925 141.428 66.0149C141.262 65.8373 141.162 65.6085 141.144 65.3662C140.869 61.4447 140.058 58.6004 139.098 58.6004C138.138 58.6004 137.327 61.4447 137.053 65.3662C137.035 65.6085 136.935 65.8373 136.769 66.0149C136.603 66.1925 136.382 66.3082 136.141 66.343C133.858 66.6896 132.283 67.4238 132.283 68.2749C132.283 69.126 133.858 69.8602 136.141 70.2068C136.382 70.2417 136.603 70.3575 136.769 70.5351C136.934 70.7126 137.035 70.9414 137.053 71.1835C137.327 75.1051 138.138 77.9494 139.098 77.9494C140.058 77.9494 140.869 75.1051 141.144 71.1835C141.162 70.9413 141.262 70.7125 141.428 70.5349C141.593 70.3573 141.815 70.2416 142.055 70.2068C144.338 69.8602 145.913 69.126 145.913 68.2749C145.913 67.4238 144.338 66.69 142.055 66.343Z" fill="white"/>
<path d="M51.5081 124.321H61.35H68.5383C69.2148 124.321 69.2159 124.321 68.5383 124.321H51.5081C50.8312 124.321 50.8301 124.321 51.5081 124.321ZM51.5081 127L68.5383 127C69.2148 127 69.2159 127 68.5383 127L51.5081 127C51.5081 125.91 50.8312 127 51.5081 127ZM108.814 119.835C109.772 122.107 111.984 123.628 114.383 123.624C116.782 123.621 118.991 122.112 119.951 119.835C120.219 119.199 119.313 118.643 119.043 119.285C118.227 121.221 116.445 122.532 114.383 122.534C112.321 122.537 110.537 121.218 109.722 119.285C109.452 118.644 108.546 119.198 108.814 119.835ZM82.6831 119.835C83.6404 122.107 85.8528 123.628 88.251 123.624C90.6507 123.621 92.8598 122.112 93.8193 119.835C94.0876 119.199 93.1819 118.643 92.9113 119.285C92.0954 121.221 90.3136 122.532 88.251 122.534C86.1895 122.537 84.4056 121.218 83.5911 119.285C83.3205 118.644 82.4144 119.198 82.6831 119.835Z" fill="black"/>
<path d="M104 131.5C104 132.163 103.737 132.799 103.268 133.268C102.799 133.737 102.163 134 101.5 134C100.837 134 100.201 133.737 99.7322 133.268C99.2634 132.799 99 132.163 99 131.5C99 130.837 99.2634 130.201 99.7322 129.732C100.201 129.263 100.837 129 101.5 129C102.163 129 102.799 129.263 103.268 129.732C103.737 130.201 104 130.837 104 131.5Z" fill="black"/>
<g clip-path="url(#clip1_778_6372)">
<path d="M168 200C181.807 200 193 188.807 193 175C193 161.193 181.807 150 168 150C154.193 150 143 161.193 143 175C143 188.807 154.193 200 168 200Z" fill="#E21B1B"/>
<path d="M192.832 177.862L178.929 163.959L157.673 185.997L171.435 199.759C182.683 198.213 191.541 189.188 192.832 177.862Z" fill="#C40606"/>
<path d="M177.607 186.283C177.35 186.283 177.096 186.233 176.859 186.135C176.622 186.036 176.407 185.892 176.226 185.711L157.298 166.782C156.534 166.019 156.534 164.783 157.298 164.02C158.061 163.258 159.297 163.257 160.059 164.02L178.988 182.949C179.751 183.712 179.751 184.948 178.988 185.711C178.807 185.892 178.592 186.036 178.355 186.135C178.118 186.233 177.863 186.283 177.607 186.283Z" fill="white"/>
<path d="M158.678 186.283C158.422 186.283 158.168 186.233 157.931 186.135C157.694 186.036 157.478 185.892 157.297 185.711C156.534 184.948 156.534 183.712 157.297 182.949L176.226 164.02C176.989 163.257 178.225 163.257 178.988 164.02C179.75 164.784 179.751 166.02 178.988 166.782L160.06 185.711C159.878 185.893 159.663 186.037 159.426 186.135C159.189 186.233 158.935 186.283 158.678 186.283Z" fill="white"/>
</g>
</g>
<defs>
<clipPath id="clip0_778_6372">
<rect width="200" height="200" fill="white"/>
</clipPath>
<clipPath id="clip1_778_6372">
<rect width="50" height="50" fill="white" transform="translate(143 150)"/>
</clipPath>
</defs>
</svg>
