<svg width="21" height="20" viewBox="0 0 21 20" fill="none" xmlns="http://www.w3.org/2000/svg">
<g clip-path="url(#clip0_1553_7487)">
<path d="M17.7512 2.90756C16.8343 1.98216 15.7424 1.24849 14.5391 0.749318C13.3358 0.250144 12.0452 -0.00455534 10.7425 6.16632e-05C5.28375 6.16632e-05 0.835 4.44756 0.83 9.90756C0.83 11.6563 1.2875 13.3576 2.15125 14.8638L0.75 20.0001L6.005 18.6226C7.45876 19.4137 9.08741 19.8284 10.7425 19.8288H10.7475C16.2075 19.8288 20.655 15.3813 20.66 9.91631C20.6612 8.61387 20.4048 7.32405 19.9053 6.12116C19.4059 4.91827 18.6746 3.8261 17.7512 2.90756ZM10.7425 18.1513C9.26625 18.1518 7.81713 17.7546 6.5475 17.0013L6.2475 16.8213L3.13 17.6388L3.9625 14.5976L3.7675 14.2838C2.94226 12.9717 2.50581 11.4526 2.50875 9.90256C2.50875 5.37006 6.205 1.67256 10.7475 1.67256C11.8297 1.67062 12.9015 1.8829 13.9013 2.29718C14.901 2.71145 15.8089 3.31951 16.5725 4.08631C17.3388 4.85012 17.9463 5.75809 18.3599 6.75785C18.7735 7.75761 18.9851 8.82937 18.9825 9.91131C18.9775 14.4601 15.2812 18.1513 10.7425 18.1513ZM15.2613 11.9838C15.015 11.8601 13.7987 11.2613 13.57 11.1763C13.3425 11.0951 13.1762 11.0526 13.0138 11.3001C12.8475 11.5463 12.3725 12.1076 12.23 12.2688C12.0875 12.4351 11.94 12.4538 11.6925 12.3313C11.4462 12.2063 10.6475 11.9463 9.7025 11.1001C8.965 10.4438 8.47125 9.63131 8.32375 9.38506C8.18125 9.13756 8.31 9.00506 8.43375 8.88131C8.5425 8.77131 8.68 8.59131 8.80375 8.44881C8.92875 8.30631 8.97 8.20131 9.05125 8.03631C9.1325 7.86881 9.09375 7.72631 9.0325 7.60256C8.97 7.47881 8.47625 6.25756 8.2675 5.76506C8.0675 5.27881 7.86375 5.34631 7.71125 5.34006C7.56875 5.33131 7.4025 5.33131 7.23625 5.33131C7.1107 5.33443 6.98716 5.36347 6.87337 5.4166C6.75958 5.46973 6.65799 5.54581 6.575 5.64006C6.3475 5.88756 5.71125 6.48631 5.71125 7.70756C5.71125 8.92881 6.59875 10.1026 6.72375 10.2688C6.84625 10.4351 8.46625 12.9338 10.9525 14.0088C11.54 14.2651 12.0025 14.4163 12.3638 14.5313C12.9575 14.7213 13.4937 14.6926 13.9212 14.6313C14.3962 14.5588 15.385 14.0313 15.5938 13.4526C15.7987 12.8726 15.7988 12.3776 15.7362 12.2738C15.675 12.1688 15.5087 12.1076 15.2613 11.9838Z" fill="white"/>
</g>
<defs>
<clipPath id="clip0_1553_7487">
<rect width="20" height="20" fill="white" transform="translate(0.75)"/>
</clipPath>
</defs>
</svg>
