<svg width="21" height="20" viewBox="0 0 21 20" fill="none" xmlns="http://www.w3.org/2000/svg">
<g clip-path="url(#clip0_1553_7464)">
<path d="M0.25 5C0.25 4.33696 0.513392 3.70107 0.982233 3.23223C1.45107 2.76339 2.08696 2.5 2.75 2.5H17.75C18.413 2.5 19.0489 2.76339 19.5178 3.23223C19.9866 3.70107 20.25 4.33696 20.25 5V15C20.25 15.663 19.9866 16.2989 19.5178 16.7678C19.0489 17.2366 18.413 17.5 17.75 17.5H2.75C2.08696 17.5 1.45107 17.2366 0.982233 16.7678C0.513392 16.2989 0.25 15.663 0.25 15V5ZM2.75 3.75C2.41848 3.75 2.10054 3.8817 1.86612 4.11612C1.6317 4.35054 1.5 4.66848 1.5 5V5.27125L10.25 10.5212L19 5.27125V5C19 4.66848 18.8683 4.35054 18.6339 4.11612C18.3995 3.8817 18.0815 3.75 17.75 3.75H2.75ZM19 6.72875L13.115 10.26L19 13.8812V6.72875ZM18.9575 15.3237L11.9075 10.985L10.25 11.9788L8.5925 10.985L1.5425 15.3225C1.61353 15.5885 1.7704 15.8236 1.98874 15.9913C2.20708 16.159 2.47468 16.25 2.75 16.25H17.75C18.0252 16.25 18.2926 16.1593 18.511 15.9918C18.7293 15.8243 18.8862 15.5895 18.9575 15.3237ZM1.5 13.8812L7.385 10.26L1.5 6.72875V13.8812Z" fill="white"/>
</g>
<defs>
<clipPath id="clip0_1553_7464">
<rect width="20" height="20" fill="white" transform="translate(0.25)"/>
</clipPath>
</defs>
</svg>
