<svg width="21" height="20" viewBox="0 0 21 20" fill="none" xmlns="http://www.w3.org/2000/svg">
<g clip-path="url(#clip0_1553_7473)">
<path d="M10.4169 1.25C8.75927 1.25 7.16956 1.90848 5.99745 3.08058C4.82535 4.25269 4.16687 5.8424 4.16687 7.5V8.75H5.41687C5.74839 8.75 6.06633 8.8817 6.30075 9.11612C6.53517 9.35054 6.66687 9.66848 6.66687 10V13.75C6.66687 14.0815 6.53517 14.3995 6.30075 14.6339C6.06633 14.8683 5.74839 15 5.41687 15H4.16687C3.83535 15 3.51741 14.8683 3.28299 14.6339C3.04857 14.3995 2.91687 14.0815 2.91687 13.75V7.5C2.91687 6.51509 3.11086 5.53982 3.48777 4.62987C3.86468 3.71993 4.41713 2.89314 5.11357 2.1967C5.81001 1.50026 6.6368 0.947814 7.54674 0.570904C8.45669 0.193993 9.43196 0 10.4169 0C11.4018 0 12.3771 0.193993 13.287 0.570904C14.1969 0.947814 15.0237 1.50026 15.7202 2.1967C16.4166 2.89314 16.9691 3.71993 17.346 4.62987C17.7229 5.53982 17.9169 6.51509 17.9169 7.5V15C17.9169 15.8288 17.5876 16.6237 17.0016 17.2097C16.4155 17.7958 15.6207 18.125 14.7919 18.125H12.1244C12.0147 18.315 11.8569 18.4728 11.6669 18.5825C11.4768 18.6922 11.2613 18.75 11.0419 18.75H9.79187C9.46035 18.75 9.14241 18.6183 8.90799 18.3839C8.67357 18.1495 8.54187 17.8315 8.54187 17.5C8.54187 17.1685 8.67357 16.8505 8.90799 16.6161C9.14241 16.3817 9.46035 16.25 9.79187 16.25H11.0419C11.2613 16.25 11.4768 16.3078 11.6669 16.4175C11.8569 16.5272 12.0147 16.685 12.1244 16.875H14.7919C15.2892 16.875 15.7661 16.6775 16.1177 16.3258C16.4693 15.9742 16.6669 15.4973 16.6669 15H15.4169C15.0853 15 14.7674 14.8683 14.533 14.6339C14.2986 14.3995 14.1669 14.0815 14.1669 13.75V10C14.1669 9.66848 14.2986 9.35054 14.533 9.11612C14.7674 8.8817 15.0853 8.75 15.4169 8.75H16.6669V7.5C16.6669 6.67924 16.5052 5.86651 16.1911 5.10823C15.877 4.34994 15.4167 3.66095 14.8363 3.08058C14.2559 2.50022 13.5669 2.03984 12.8086 1.72575C12.0504 1.41166 11.2376 1.25 10.4169 1.25Z" fill="white"/>
</g>
<defs>
<clipPath id="clip0_1553_7473">
<rect width="20" height="20" fill="white" transform="translate(0.41687)"/>
</clipPath>
</defs>
</svg>
