<svg width="21" height="20" viewBox="0 0 21 20" fill="none" xmlns="http://www.w3.org/2000/svg">
<g clip-path="url(#clip0_1553_7483)">
<path d="M3.93063 14.8675C4.06038 14.9977 4.1598 15.155 4.22181 15.3281C4.28382 15.5011 4.30689 15.6857 4.28938 15.8687C4.20153 16.7157 4.03498 17.5527 3.79188 18.3687C5.53563 17.965 6.60063 17.4975 7.08438 17.2525C7.35876 17.1135 7.67474 17.0806 7.97188 17.16C8.82367 17.3871 9.70159 17.5014 10.5831 17.5C15.5781 17.5 19.3331 13.9913 19.3331 10C19.3331 6.01 15.5781 2.5 10.5831 2.5C5.58813 2.5 1.83313 6.01 1.83313 10C1.83313 11.835 2.60438 13.5375 3.93063 14.8675ZM3.31438 19.7487C3.01822 19.8075 2.72109 19.8612 2.42313 19.91C2.17313 19.95 1.98313 19.69 2.08188 19.4575C2.19287 19.1957 2.2946 18.9302 2.38688 18.6612L2.39063 18.6488C2.70063 17.7487 2.95313 16.7138 3.04563 15.75C1.51188 14.2125 0.58313 12.2 0.58313 10C0.58313 5.1675 5.06063 1.25 10.5831 1.25C16.1056 1.25 20.5831 5.1675 20.5831 10C20.5831 14.8325 16.1056 18.75 10.5831 18.75C9.59269 18.7513 8.60636 18.6227 7.64938 18.3675C6.99938 18.6963 5.60063 19.295 3.31438 19.7487Z" fill="white"/>
</g>
<defs>
<clipPath id="clip0_1553_7483">
<rect width="20" height="20" fill="white" transform="translate(0.58313)"/>
</clipPath>
</defs>
</svg>
