<svg width="44" height="44" viewBox="0 0 44 44" fill="none" xmlns="http://www.w3.org/2000/svg">
<g clip-path="url(#clip0_1392_7659)">
<path d="M11 13.3374V15.8124H13.75V13.3374H11ZM30.25 13.3374V15.8124H33V13.3374H30.25ZM11 18.2874V20.7624H13.75V18.2874H11ZM30.25 18.2874V20.7624H33V18.2874H30.25ZM11 23.2374V25.7124H13.75V23.2374H11ZM30.25 23.2374V25.7124H33V23.2374H30.25ZM11 28.1874V30.6624H13.75V28.1874H11ZM30.25 28.1874V30.6624H33V28.1874H30.25Z" fill="#5441B5"/>
<path d="M4.125 8.25C3.03098 8.25 1.98177 8.6846 1.20818 9.45818C0.434597 10.2318 0 11.281 0 12.375L0 16.5C0 16.8647 0.144866 17.2144 0.402728 17.4723C0.660591 17.7301 1.01033 17.875 1.375 17.875C2.46902 17.875 3.51823 18.3096 4.29182 19.0832C5.0654 19.8568 5.5 20.906 5.5 22C5.5 23.094 5.0654 24.1432 4.29182 24.9168C3.51823 25.6904 2.46902 26.125 1.375 26.125C1.01033 26.125 0.660591 26.2699 0.402728 26.5277C0.144866 26.7856 0 27.1353 0 27.5L0 31.625C0 32.719 0.434597 33.7682 1.20818 34.5418C1.98177 35.3154 3.03098 35.75 4.125 35.75H39.875C40.969 35.75 42.0182 35.3154 42.7918 34.5418C43.5654 33.7682 44 32.719 44 31.625V27.5C44 27.1353 43.8551 26.7856 43.5973 26.5277C43.3394 26.2699 42.9897 26.125 42.625 26.125C41.531 26.125 40.4818 25.6904 39.7082 24.9168C38.9346 24.1432 38.5 23.094 38.5 22C38.5 20.906 38.9346 19.8568 39.7082 19.0832C40.4818 18.3096 41.531 17.875 42.625 17.875C42.9897 17.875 43.3394 17.7301 43.5973 17.4723C43.8551 17.2144 44 16.8647 44 16.5V12.375C44 11.281 43.5654 10.2318 42.7918 9.45818C42.0182 8.6846 40.969 8.25 39.875 8.25H4.125ZM2.75 12.375C2.75 12.0103 2.89487 11.6606 3.15273 11.4027C3.41059 11.1449 3.76033 11 4.125 11H39.875C40.2397 11 40.5894 11.1449 40.8473 11.4027C41.1051 11.6606 41.25 12.0103 41.25 12.375V15.2625C39.6959 15.5781 38.2986 16.4213 37.295 17.6491C36.2914 18.877 35.7431 20.4141 35.7431 22C35.7431 23.5859 36.2914 25.123 37.295 26.3509C38.2986 27.5787 39.6959 28.4219 41.25 28.7375V31.625C41.25 31.9897 41.1051 32.3394 40.8473 32.5973C40.5894 32.8551 40.2397 33 39.875 33H4.125C3.76033 33 3.41059 32.8551 3.15273 32.5973C2.89487 32.3394 2.75 31.9897 2.75 31.625V28.7375C4.30415 28.4219 5.7014 27.5787 6.70502 26.3509C7.70864 25.123 8.25689 23.5859 8.25689 22C8.25689 20.4141 7.70864 18.877 6.70502 17.6491C5.7014 16.4213 4.30415 15.5781 2.75 15.2625V12.375Z" fill="#5441B5"/>
</g>
<defs>
<clipPath id="clip0_1392_7659">
<rect width="44" height="44" fill="white"/>
</clipPath>
</defs>
</svg>
