<svg width="200" height="200" viewBox="0 0 200 200" fill="none" xmlns="http://www.w3.org/2000/svg">
<g clip-path="url(#clip0_1482_7886)">
<path d="M150.149 107.045L171.137 86.0566H132.033L118.472 99.6171L121.586 102.731L133.857 90.4598H160.507L146.123 104.843H86.8903L68.1033 86.0566H29L49.9883 107.045L29 128.033H96.2837L111.957 112.36V170.597H55.3031V132.877H50.9V175H149.237V128.033H171.137L150.149 107.045ZM66.2798 90.4598L80.6631 104.843H54.0136L39.6297 90.4598H66.2798ZM94.4599 123.63H39.6297L54.0133 109.246H108.843L94.4599 123.63ZM144.833 170.597H116.36V109.246H144.833V170.597ZM149.237 112.36L160.507 123.63H149.237V112.36Z" fill="#FF7300"/>
<path d="M77.211 89.9808L94.8705 82.6599C98.6292 84.6981 102.838 85.7649 107.114 85.7632C121.276 85.7632 132.798 74.2411 132.798 60.0783C132.798 45.9155 121.276 34.3933 107.114 34.3933C92.9507 34.3933 81.4286 45.9155 81.4286 60.0783C81.4269 64.3541 82.4937 68.5626 84.5319 72.3213L77.211 89.9808ZM88.8655 71.0315C86.8782 67.7237 85.8294 63.9371 85.8317 60.0783C85.8317 48.3433 95.3786 38.7965 107.114 38.7965C118.848 38.7965 128.395 48.3433 128.395 60.0783C128.395 71.8132 118.848 81.3601 107.114 81.3601C103.255 81.3624 99.4681 80.3136 96.1603 78.3263L95.2083 77.7533L85.353 81.8391L89.4388 71.9838L88.8655 71.0315ZM71.8885 38.7965C75.6922 38.7965 78.7867 35.702 78.7867 31.8982C78.7867 28.0945 75.6922 25 71.8885 25C68.0848 25 64.9902 28.0945 64.9902 31.8982C64.9902 35.702 68.0848 38.7965 71.8885 38.7965ZM71.8885 29.4031C73.2643 29.4031 74.3836 30.5224 74.3836 31.8982C74.3836 33.2741 73.2643 34.3933 71.8885 34.3933C70.5126 34.3933 69.3934 33.2741 69.3934 31.8982C69.3934 30.5224 70.5126 29.4031 71.8885 29.4031ZM144.834 67.1233C144.834 70.927 147.928 74.0215 151.732 74.0215C155.536 74.0215 158.63 70.927 158.63 67.1233C158.63 63.3196 155.536 60.225 151.732 60.225C147.928 60.225 144.834 63.3196 144.834 67.1233ZM151.732 64.6282C153.108 64.6282 154.227 65.7475 154.227 67.1233C154.227 68.4991 153.108 69.6184 151.732 69.6184C150.356 69.6184 149.237 68.4991 149.237 67.1233C149.237 65.7475 150.356 64.6282 151.732 64.6282Z" fill="#FF7300"/>
<path d="M101.536 74.0527L107.113 68.4754L112.691 74.0527L121.088 65.6557L115.511 60.0784L121.088 54.5011L112.691 46.104L107.113 51.6813L101.536 46.104L93.1391 54.5011L98.7164 60.0784L93.1391 65.6557L101.536 74.0527ZM99.3657 54.5011L101.536 52.3306L107.113 57.9079L112.691 52.3306L114.861 54.5011L109.284 60.0784L114.861 65.6557L112.691 67.8261L107.113 62.2488L101.536 67.8261L99.3657 65.6557L104.943 60.0784L99.3657 54.5011ZM55.5969 60.0784H60V55.2349H64.8434V50.8318H60V45.9883H55.5969V50.8318H50.7534V55.2349H55.5969V60.0784ZM140.137 45.9883H144.54V41.1449H149.384V36.7418H144.54V31.8983H140.137V36.7418H135.294V41.1449H140.137V45.9883ZM71.8884 158.855H76.5851V163.258H71.8884V158.855ZM81.2818 158.855H85.9785V163.258H81.2818V158.855ZM90.6751 158.855H95.3718V163.258H90.6751V158.855ZM125.109 155.569L128.395 152.282V163.405H132.798V152.282L136.085 155.569L139.199 152.455L130.597 143.854L121.995 152.455L125.109 155.569Z" fill="#FF7300"/>
<circle cx="91.6687" cy="109.792" r="86.2126" fill="#FF7300" fill-opacity="0.3"/>
<circle cx="10.8597" cy="51.5802" r="5.40364" fill="#FF7300" fill-opacity="0.3"/>
<circle cx="150.618" cy="30.2113" r="10.0704" fill="#FF7300" fill-opacity="0.3"/>
<circle cx="12.5792" cy="165.302" r="9.57918" fill="#FF7300" fill-opacity="0.3"/>
<circle cx="184.022" cy="155.969" r="9.57918" fill="#FF7300" fill-opacity="0.3"/>
<circle cx="165.355" cy="166.776" r="4.66678" fill="#FF7300" fill-opacity="0.3"/>
<path d="M103.61 7.17084C103.294 7.10347 103.294 6.65133 103.61 6.58396L107.758 5.70198C107.873 5.67743 107.964 5.58747 107.989 5.47212L108.882 1.35211C108.95 1.03688 109.4 1.03688 109.468 1.35211L110.362 5.47212C110.387 5.58747 110.477 5.67743 110.593 5.70198L114.74 6.58396C115.057 6.65133 115.057 7.10347 114.74 7.17084L110.593 8.05282C110.477 8.07737 110.387 8.16733 110.362 8.28268L109.468 12.4027C109.4 12.7179 108.95 12.7179 108.882 12.4027L107.989 8.28268C107.964 8.16733 107.873 8.07737 107.758 8.05282L103.61 7.17084Z" fill="#FF7300" fill-opacity="0.9"/>
<path d="M117.514 177.407C117.637 176.829 118.461 176.829 118.584 177.407L120.164 184.875C120.209 185.085 120.373 185.25 120.583 185.296L127.978 186.907C128.552 187.032 128.552 187.85 127.978 187.975L120.583 189.586C120.373 189.632 120.209 189.796 120.164 190.006L118.584 197.474C118.461 198.052 117.637 198.052 117.514 197.474L115.934 190.006C115.889 189.796 115.725 189.632 115.515 189.586L108.12 187.975C107.547 187.85 107.547 187.032 108.12 186.907L115.515 185.296C115.725 185.25 115.889 185.085 115.934 184.875L117.514 177.407Z" fill="#FF7300" fill-opacity="0.9"/>
<path d="M183.4 50.6672C183.523 50.0895 184.347 50.0895 184.47 50.6672L185.366 54.903C185.411 55.1133 185.574 55.278 185.785 55.3237L189.994 56.2408C190.567 56.3657 190.567 57.1837 189.994 57.3086L185.785 58.2256C185.574 58.2714 185.411 58.4361 185.366 58.6464L184.47 62.8822C184.347 63.4599 183.523 63.4599 183.4 62.8822L182.504 58.6464C182.459 58.4361 182.296 58.2714 182.086 58.2256L177.876 57.3086C177.303 57.1837 177.303 56.3657 177.876 56.2408L182.086 55.3237C182.296 55.278 182.459 55.1133 182.504 54.903L183.4 50.6672Z" fill="#FF7300" fill-opacity="0.9"/>
<path d="M188.521 126.411L190.025 133.518L197.03 135.044L190.025 136.571L188.521 143.678L187.016 136.571L180.011 135.044L187.016 133.518L188.521 126.411Z" fill="white"/>
</g>
<defs>
<clipPath id="clip0_1482_7886">
<rect width="200" height="200" fill="white"/>
</clipPath>
</defs>
</svg>
