<svg width="24" height="24" viewBox="0 0 24 24" fill="none" xmlns="http://www.w3.org/2000/svg">
<path d="M11.3939 2.96534C11.7286 2.6306 12.2714 2.6306 12.6061 2.96534L22.5368 12.896C22.8715 13.2307 23.4142 13.2307 23.7489 12.896C24.0837 12.5613 24.0837 12.0186 23.7489 11.6838L13.8183 1.75315C12.8141 0.748947 11.1859 0.74895 10.1817 1.75315L0.251051 11.6838C-0.0836838 12.0186 -0.0836838 12.5613 0.251051 12.896C0.585786 13.2307 1.1285 13.2307 1.46323 12.896L11.3939 2.96534Z" fill="#FF7300"/>
<path d="M12 4.78361L21.3246 14.1082C21.3585 14.1422 21.3932 14.175 21.4286 14.2066V21.2899C21.4286 22.4734 20.4692 23.4328 19.2857 23.4328H15.4286C14.9552 23.4328 14.5714 23.049 14.5714 22.5756V17.4328C14.5714 16.9594 14.1877 16.5756 13.7143 16.5756H10.2857C9.81233 16.5756 9.42857 16.9594 9.42857 17.4328V22.5756C9.42857 23.049 9.04482 23.4328 8.57143 23.4328H4.71429C3.53082 23.4328 2.57143 22.4734 2.57143 21.2899V14.2066C2.60677 14.175 2.64145 14.1422 2.67542 14.1082L12 4.78361Z" fill="#FF7300"/>
</svg>
