<svg width="306" height="306" viewBox="0 0 306 306" fill="none" xmlns="http://www.w3.org/2000/svg">
<circle cx="151.088" cy="153.819" r="95.8982" fill="#FF7300" fill-opacity="0.3"/>
<circle cx="61.2007" cy="89.0676" r="6.01071" fill="#FF7300" fill-opacity="0.3"/>
<circle cx="216.659" cy="65.298" r="11.2018" fill="#FF7300" fill-opacity="0.3"/>
<circle cx="63.1129" cy="215.566" r="10.6554" fill="#FF7300" fill-opacity="0.3"/>
<circle cx="253.816" cy="205.184" r="10.6554" fill="#FF7300" fill-opacity="0.3"/>
<circle cx="233.052" cy="217.205" r="5.19107" fill="#FF7300" fill-opacity="0.3"/>
<path d="M167.093 72.9681C166.776 72.9008 166.776 72.4486 167.093 72.3813L171.883 71.3627C171.998 71.3382 172.088 71.2482 172.113 71.1328L173.145 66.3768C173.213 66.0615 173.663 66.0615 173.731 66.3768L174.762 71.1328C174.787 71.2482 174.878 71.3382 174.993 71.3627L179.783 72.3813C180.1 72.4486 180.1 72.9008 179.783 72.9681L174.993 73.9867C174.878 74.0113 174.787 74.1012 174.762 74.2166L173.731 78.9726C173.663 79.2879 173.213 79.2879 173.145 78.9726L172.113 74.2166C172.088 74.1012 171.998 74.0113 171.883 73.9867L167.093 72.9681Z" fill="#FF7300" fill-opacity="0.9"/>
<path d="M50.3938 157.711C50.5161 157.133 51.3407 157.133 51.463 157.711L53.2896 166.341C53.3341 166.551 53.4978 166.716 53.7078 166.761L62.2483 168.622C62.8217 168.747 62.8217 169.565 62.2483 169.69L53.7078 171.55C53.4978 171.596 53.3341 171.761 53.2896 171.971L51.463 180.6C51.3407 181.178 50.5161 181.178 50.3938 180.6L48.5672 171.971C48.5227 171.761 48.359 171.596 48.1489 171.55L39.6085 169.69C39.035 169.565 39.035 168.747 39.6085 168.622L48.1489 166.761C48.359 166.716 48.5227 166.551 48.5672 166.341L50.3938 157.711Z" fill="#FF7300" fill-opacity="0.9"/>
<path d="M236.793 91.5932C236.915 91.0155 237.739 91.0155 237.862 91.5932L238.927 96.6275C238.972 96.8378 239.136 97.0024 239.346 97.0482L244.342 98.1367C244.916 98.2616 244.916 99.0796 244.342 99.2045L239.346 100.293C239.136 100.339 238.972 100.503 238.927 100.714L237.862 105.748C237.739 106.326 236.915 106.326 236.793 105.748L235.727 100.714C235.682 100.503 235.519 100.339 235.309 100.293L230.312 99.2045C229.739 99.0796 229.739 98.2616 230.312 98.1367L235.309 97.0482C235.519 97.0024 235.682 96.8378 235.727 96.6275L236.793 91.5932Z" fill="#FF7300" fill-opacity="0.9"/>
<path d="M258.821 172.306L260.495 180.211L268.287 181.909L260.495 183.606L258.821 191.512L257.148 183.606L249.355 181.909L257.148 180.211L258.821 172.306Z" fill="white"/>
<path d="M98.4395 138.866C91.7267 152.16 111.77 175.028 85.5163 162.016C67.783 149.619 60.5556 136.419 67.2683 123.126C73.9811 109.832 92.4114 105.614 108.434 113.705C134.695 125.132 105.152 125.573 98.4395 138.866Z" fill="#FF7300" fill-opacity="0.5"/>
<path d="M107.983 114.598L108.008 114.611L108.035 114.622C111.293 116.04 113.642 117.269 115.263 118.353C116.909 119.453 117.688 120.329 117.98 120.991C118.225 121.547 118.164 122.03 117.76 122.613C117.31 123.262 116.472 123.96 115.258 124.746C114.093 125.501 112.683 126.274 111.127 127.127L110.995 127.199C109.4 128.074 107.673 129.025 105.991 130.088C102.646 132.204 99.3501 134.844 97.5468 138.415C95.7297 142.014 95.7561 146.185 96.2896 150.058C96.5579 152.005 96.9606 153.915 97.3462 155.677C97.3956 155.903 97.4447 156.127 97.4932 156.347C97.826 157.86 98.1287 159.237 98.3177 160.459C98.5372 161.878 98.5774 162.945 98.4005 163.681C98.3161 164.032 98.1918 164.265 98.0501 164.423C97.9142 164.575 97.719 164.707 97.405 164.793C96.7255 164.978 95.5539 164.925 93.6218 164.345C91.7347 163.778 89.2549 162.75 86.0277 161.153C77.2602 155.015 71.1949 148.748 68.1234 142.468C65.0701 136.225 64.9521 129.931 68.161 123.576C74.5497 110.925 92.2904 106.674 107.983 114.598Z" stroke="#FF7300" stroke-opacity="0.9" stroke-width="2"/>
<path d="M32.0926 110.399L32.7459 110.345C45.8094 109.264 58.884 112.295 70.1399 119.012V119.012" stroke="#FF7300" stroke-opacity="0.9" stroke-width="2"/>
<path d="M28.1189 117.858L29.2083 117.764C42.1207 116.654 55.0597 119.574 66.243 126.124V126.124" stroke="#FF7300" stroke-opacity="0.9" stroke-width="2"/>
<path d="M133.566 156.604C126.028 171.53 116.116 181.71 96.904 172.008C84.1936 165.59 79.9998 148.287 87.5369 133.361C95.074 118.435 111.488 111.538 124.198 117.956C143.984 129.23 141.103 141.678 133.566 156.604Z" fill="#FF7300" fill-opacity="0.5"/>
<path d="M132.673 156.153C128.922 163.58 124.674 169.62 119.132 172.665C113.679 175.66 106.759 175.864 97.3548 171.115C85.2665 165.011 81.0707 148.384 88.4295 133.811C95.7838 119.247 111.64 112.753 123.725 118.838C133.45 124.384 137.38 130.083 138.136 136.036C138.905 142.094 136.44 148.694 132.673 156.153Z" stroke="#FF7300" stroke-opacity="0.9" stroke-width="2"/>
<ellipse cx="116.027" cy="147.673" rx="20.8944" ry="28.7535" transform="rotate(-155.936 116.027 147.673)" fill="white"/>
<ellipse cx="116.042" cy="147.755" rx="22.4706" ry="30.2762" transform="rotate(26.7922 116.042 147.755)" fill="white"/>
<path d="M135.208 157.433C131.526 164.724 126.016 170.181 120.127 173.133C114.238 176.086 108.037 176.509 102.846 173.888C97.6547 171.267 94.3143 166.025 93.1941 159.533C92.0739 153.041 93.1948 145.368 96.8763 138.077C100.558 130.786 106.068 125.329 111.957 122.376C117.846 119.424 124.048 119 129.238 121.622C134.429 124.243 137.77 129.485 138.89 135.977C140.01 142.469 138.889 150.142 135.208 157.433Z" stroke="#FF7300" stroke-opacity="0.9" stroke-width="2"/>
<ellipse cx="122.631" cy="140.745" rx="4.96719" ry="5.44026" transform="rotate(-153.208 122.631 140.745)" fill="#FF7300" fill-opacity="0.9"/>
<path d="M119.09 138.956C120.235 136.689 122.751 135.831 124.633 136.781C126.514 137.731 127.317 140.266 126.172 142.533C125.028 144.8 122.511 145.658 120.63 144.708C118.748 143.758 117.945 141.224 119.09 138.956Z" stroke="#FF7300" stroke-opacity="0.9" stroke-width="2"/>
<ellipse cx="114.528" cy="156.789" rx="4.96719" ry="5.44026" transform="rotate(-153.208 114.528 156.789)" fill="#FF7300" fill-opacity="0.9"/>
<path d="M110.987 155.001C112.132 152.734 114.648 151.876 116.53 152.825C118.411 153.775 119.214 156.31 118.069 158.577C116.924 160.844 114.408 161.703 112.527 160.753C110.645 159.803 109.842 157.268 110.987 155.001Z" stroke="#FF7300" stroke-opacity="0.9" stroke-width="2"/>
<path d="M182.674 180.9C172.561 163.923 142.345 160.923 167.123 148.517C187.585 136.329 212.37 140.211 222.482 157.189C232.594 174.166 224.204 197.809 203.742 209.996C180.595 225.675 192.786 197.877 182.674 180.9Z" fill="#FF7300" fill-opacity="0.5"/>
<path d="M167.571 149.411L167.603 149.395L167.635 149.376C187.779 137.377 211.879 141.341 221.623 157.7C231.367 174.06 223.375 197.139 203.231 209.137L203.206 209.152L203.182 209.169C200.319 211.107 198.053 212.339 196.257 213.007C194.453 213.678 193.23 213.739 192.389 213.492C191.588 213.257 190.968 212.694 190.46 211.701C189.94 210.683 189.58 209.286 189.308 207.54C189.037 205.803 188.864 203.807 188.677 201.616L188.667 201.5C188.484 199.355 188.286 197.04 187.968 194.68C187.32 189.881 186.163 184.804 183.533 180.388C180.904 175.975 176.995 172.51 173.088 169.619C171.173 168.201 169.239 166.908 167.446 165.709L167.332 165.633C165.496 164.406 163.824 163.284 162.426 162.203C161.021 161.117 159.962 160.123 159.314 159.174C158.68 158.248 158.482 157.435 158.655 156.634C158.836 155.792 159.467 154.768 160.912 153.534C162.349 152.307 164.507 150.945 167.571 149.411Z" stroke="#FF7300" stroke-opacity="0.9" stroke-width="2"/>
<path d="M261.766 126.849L261.362 127.619C253.277 143.019 240.58 155.506 225.047 163.333V163.333" stroke="#FF7300" stroke-opacity="0.9" stroke-width="2"/>
<path d="M256.24 117.089L255.57 118.375C247.626 133.627 235.148 146.041 219.855 153.906V153.906" stroke="#FF7300" stroke-opacity="0.9" stroke-width="2"/>
<path d="M138.802 162.247L144.734 158.713L149.588 155.822" stroke="#FF7300" stroke-opacity="0.9" stroke-width="2"/>
<path d="M137.813 207.621C126.459 188.559 121.581 167.48 146.646 155.6C162.879 145.931 185.242 153.546 196.596 172.608C207.95 191.67 203.995 214.961 187.763 224.63C161.47 239.335 149.167 226.683 137.813 207.621Z" fill="#FF7300" fill-opacity="0.5"/>
<path d="M147.074 156.503L147.117 156.483L147.158 156.459C162.792 147.147 184.585 154.398 195.737 173.12C206.886 191.837 202.887 214.447 187.263 223.764C174.288 231.017 164.999 231.403 157.616 227.886C150.131 224.319 144.346 216.636 138.672 207.11C133.024 197.627 129.093 187.805 129.571 178.971C129.808 174.579 131.136 170.425 133.901 166.651C136.672 162.869 140.922 159.42 147.074 156.503Z" stroke="#FF7300" stroke-opacity="0.9" stroke-width="2"/>
<ellipse cx="160.194" cy="194.291" rx="29.8164" ry="40.1737" transform="rotate(149.221 160.194 194.291)" fill="white"/>
<path d="M135.436 209.038C129.858 199.673 127.647 189.549 128.538 180.776C129.43 172.003 133.408 164.65 140.147 160.636C146.886 156.622 155.247 156.625 163.386 160.02C171.524 163.414 179.373 170.18 184.951 179.545C190.529 188.91 192.741 199.034 191.849 207.807C190.958 216.58 186.979 223.933 180.24 227.947C173.501 231.961 165.141 231.958 157.002 228.563C148.863 225.169 141.015 218.403 135.436 209.038Z" stroke="#FF7300" stroke-opacity="0.9" stroke-width="2"/>
<path d="M170.177 200.237C171.859 203.061 170.934 206.713 168.11 208.395L135.569 227.778C132.745 229.46 129.093 228.534 127.411 225.711C125.729 222.887 126.655 219.235 129.478 217.553L162.02 198.17C164.843 196.488 168.496 197.414 170.177 200.237Z" fill="#FF7300" fill-opacity="0.3"/>
<path d="M169.318 200.749C170.718 203.098 169.947 206.137 167.598 207.536L135.057 226.919C132.708 228.318 129.669 227.548 128.27 225.199C126.871 222.85 127.641 219.811 129.99 218.412L162.531 199.029C164.881 197.63 167.919 198.4 169.318 200.749Z" stroke="#FF7300" stroke-opacity="0.9" stroke-width="2"/>
<path d="M156.517 179.473C158.199 182.296 157.273 185.949 154.449 187.631L121.908 207.013C119.084 208.695 115.432 207.77 113.75 204.946C112.068 202.123 112.994 198.47 115.818 196.788L148.359 177.406C151.183 175.724 154.835 176.649 156.517 179.473Z" fill="#FF7300" fill-opacity="0.3"/>
<path d="M155.658 179.985C157.057 182.334 156.287 185.372 153.938 186.771L121.396 206.154C119.047 207.554 116.009 206.783 114.609 204.434C113.21 202.085 113.98 199.047 116.329 197.648L148.871 178.265C151.22 176.866 154.258 177.636 155.658 179.985Z" stroke="#FF7300" stroke-opacity="0.9" stroke-width="2"/>
</svg>
