<svg width="201" height="200" viewBox="0 0 201 200" fill="none" xmlns="http://www.w3.org/2000/svg">
<circle cx="99.2281" cy="108.161" r="81.8394" fill="#FF7300" fill-opacity="0.2"/>
<circle cx="22.5182" cy="52.9018" r="5.12953" fill="#FF7300" fill-opacity="0.2"/>
<circle cx="157.518" cy="19.5595" r="9.55959" fill="#FF7300" fill-opacity="0.2"/>
<circle cx="24.1499" cy="160.855" r="9.09327" fill="#FF7300" fill-opacity="0.2"/>
<circle cx="186.896" cy="151.995" r="9.09327" fill="#FF7300" fill-opacity="0.2"/>
<circle cx="169.176" cy="162.254" r="4.43005" fill="#FF7300" fill-opacity="0.2"/>
<path d="M191.167 123.937L192.595 130.683L199.245 132.132L192.595 133.58L191.167 140.327L189.739 133.58L183.089 132.132L189.739 130.683L191.167 123.937Z" fill="white"/>
<path d="M182.548 55.4276C182.671 54.8499 183.495 54.8499 183.618 55.4276L184.438 59.3029C184.482 59.5132 184.646 59.6779 184.856 59.7237L188.71 60.5633C189.284 60.6882 189.284 61.5062 188.71 61.6311L184.856 62.4707C184.646 62.5165 184.482 62.6811 184.438 62.8915L183.618 66.7668C183.495 67.3445 182.671 67.3445 182.548 66.7668L181.728 62.8915C181.684 62.6811 181.52 62.5165 181.31 62.4707L177.456 61.6311C176.882 61.5062 176.882 60.6882 177.456 60.5633L181.31 59.7237C181.52 59.6779 181.684 59.5132 181.728 59.3029L182.548 55.4276Z" fill="#FF7300" fill-opacity="0.8"/>
<path d="M13.2173 111.852C13.3396 111.274 14.1642 111.274 14.2865 111.852L15.7562 118.795C15.8007 119.005 15.9644 119.17 16.1745 119.216L23.0529 120.714C23.6264 120.839 23.6264 121.657 23.0529 121.782L16.1745 123.281C15.9644 123.326 15.8007 123.491 15.7562 123.701L14.2865 130.645C14.1642 131.223 13.3396 131.223 13.2173 130.645L11.7476 123.701C11.703 123.491 11.5393 123.326 11.3293 123.281L4.45081 121.782C3.87732 121.657 3.87731 120.839 4.4508 120.714L11.3293 119.216C11.5393 119.17 11.703 119.005 11.7476 118.795L13.2173 111.852Z" fill="#FF7300" fill-opacity="0.8"/>
<path d="M42.5503 33.1433C42.2335 33.076 42.2335 32.6238 42.5503 32.5565L46.4078 31.7361C46.5233 31.7116 46.6136 31.6216 46.6386 31.5063L47.4697 27.6735C47.5381 27.3582 47.9877 27.3582 48.0561 27.6735L48.8872 31.5063C48.9122 31.6216 49.0026 31.7116 49.118 31.7361L52.9755 32.5565C53.2923 32.6238 53.2923 33.076 52.9755 33.1433L49.118 33.9636C49.0026 33.9882 48.9122 34.0782 48.8872 34.1935L48.0561 38.0263C47.9877 38.3416 47.5381 38.3416 47.4697 38.0263L46.6386 34.1935C46.6136 34.0782 46.5233 33.9882 46.4078 33.9636L42.5503 33.1433Z" fill="#FF7300" fill-opacity="0.8"/>
<ellipse cx="108.453" cy="96.008" rx="48.0078" ry="48.0078" fill="#FF7300" fill-opacity="0.3"/>
<path d="M155.46 96.008C155.46 121.97 134.414 143.016 108.453 143.016C82.4909 143.016 61.4448 121.97 61.4448 96.008C61.4448 70.0463 82.4909 49.0002 108.453 49.0002C134.414 49.0002 155.46 70.0463 155.46 96.008Z" stroke="#FF7300" stroke-opacity="0.8" stroke-width="2"/>
<circle cx="108.453" cy="96.0079" r="40.3605" fill="#FF7300" fill-opacity="0.2"/>
<circle cx="108.453" cy="96.0079" r="39.3605" stroke="#FF7300" stroke-opacity="0.8" stroke-width="2"/>
<path d="M46.9531 183.368L72.4408 147.968L73.5735 147.119L76.1223 146.552H79.8039L81.7862 147.968L83.7686 148.818L85.4678 150.8L86.8837 153.915L64.7945 195.545L62.2457 196.961H59.1306L54.8826 195.545L51.4843 194.129L48.3691 189.881L46.9531 188.182V183.368Z" fill="#FF7300" fill-opacity="0.8"/>
<path d="M91.6983 140.322L85.2368 150.8" stroke="#FF7300" stroke-opacity="0.8" stroke-width="2"/>
<path d="M84.1038 136.923L77.8735 146.268" stroke="#FF7300" stroke-opacity="0.8" stroke-width="2"/>
<path d="M74.14 146.552L46.6699 184.217" stroke="#FF7300" stroke-opacity="0.8" stroke-width="2"/>
<path d="M86.601 153.349L64.5117 196.111" stroke="#FF7300" stroke-opacity="0.8" stroke-width="2"/>
<path d="M73.5737 147.119L74.0399 146.859C75.0598 146.291 76.2317 146.056 77.3915 146.188V146.188C77.8652 146.242 78.33 146.356 78.7747 146.527L79.5728 146.835L79.8419 146.925C81.3411 147.425 82.7033 148.267 83.8208 149.384V149.384L84.6991 150.262C85.0562 150.619 85.3681 151.019 85.6279 151.452V151.452C85.932 151.959 86.1617 152.506 86.3101 153.078L86.6007 154.198" stroke="#FF7300" stroke-opacity="0.8" stroke-width="2"/>
<path d="M65.0776 195.545L63.8714 196.087C62.703 196.613 61.4428 196.904 60.1622 196.944V196.944C59.1677 196.975 58.1743 196.855 57.2161 196.587L56.4036 196.359L56.1312 196.267C53.7236 195.45 51.531 194.101 49.7164 192.32V192.32L48.6673 191.291C47.8471 190.486 47.2323 189.496 46.8749 188.404V188.404C46.4303 187.045 46.4021 185.585 46.7938 184.21L46.9531 183.65" stroke="#FF7300" stroke-opacity="0.8" stroke-width="2"/>
</svg>
