<svg width="306" height="306" viewBox="0 0 306 306" fill="none" xmlns="http://www.w3.org/2000/svg">
<circle cx="152.18" cy="163.656" r="95.8982" fill="#FF7300" fill-opacity="0.3"/>
<circle cx="62.2929" cy="98.9038" r="6.01071" fill="#FF7300" fill-opacity="0.3"/>
<circle cx="217.752" cy="75.1342" r="11.2018" fill="#FF7300" fill-opacity="0.3"/>
<circle cx="64.2057" cy="225.402" r="10.6554" fill="#FF7300" fill-opacity="0.3"/>
<circle cx="254.909" cy="215.02" r="10.6554" fill="#FF7300" fill-opacity="0.3"/>
<circle cx="234.145" cy="227.041" r="5.19107" fill="#FF7300" fill-opacity="0.3"/>
<path d="M165.309 49.4723C164.992 49.4049 164.992 48.9528 165.309 48.8854L170.098 47.8669C170.214 47.8423 170.304 47.7523 170.329 47.637L171.361 42.8809C171.429 42.5657 171.879 42.5657 171.947 42.8809L172.978 47.637C173.003 47.7523 173.094 47.8423 173.209 47.8669L177.999 48.8854C178.316 48.9528 178.316 49.4049 177.999 49.4723L173.209 50.4909C173.094 50.5154 173.003 50.6054 172.978 50.7207L171.947 55.4768C171.879 55.792 171.429 55.792 171.361 55.4768L170.329 50.7207C170.304 50.6054 170.214 50.5154 170.098 50.4909L165.309 49.4723Z" fill="#FF7300" fill-opacity="0.9"/>
<path d="M180.99 238.583C181.112 238.005 181.937 238.005 182.059 238.583L183.886 247.212C183.93 247.423 184.094 247.587 184.304 247.633L192.844 249.494C193.418 249.619 193.418 250.437 192.844 250.562L184.304 252.422C184.094 252.468 183.93 252.632 183.886 252.843L182.059 261.472C181.937 262.05 181.112 262.05 180.99 261.472L179.163 252.843C179.119 252.632 178.955 252.468 178.745 252.422L170.205 250.562C169.631 250.437 169.631 249.619 170.205 249.494L178.745 247.633C178.955 247.587 179.119 247.423 179.163 247.212L180.99 238.583Z" fill="#FF7300" fill-opacity="0.9"/>
<path d="M254.278 97.6044C254.4 97.0267 255.225 97.0267 255.347 97.6044L256.413 102.639C256.457 102.849 256.621 103.014 256.831 103.059L261.827 104.148C262.401 104.273 262.401 105.091 261.827 105.216L256.831 106.304C256.621 106.35 256.457 106.515 256.413 106.725L255.347 111.759C255.225 112.337 254.4 112.337 254.278 111.759L253.212 106.725C253.168 106.515 253.004 106.35 252.794 106.304L247.797 105.216C247.224 105.091 247.224 104.273 247.797 104.148L252.794 103.059C253.004 103.014 253.168 102.849 253.212 102.639L254.278 97.6044Z" fill="#FF7300" fill-opacity="0.9"/>
<path d="M259.914 182.142L261.587 190.047L269.379 191.745L261.587 193.442L259.914 201.348L258.24 193.442L250.448 191.745L258.24 190.047L259.914 182.142Z" fill="white"/>
<path d="M132.874 171.094C138.394 169.32 143.214 169.78 147.334 172.475C150.63 174.63 151.877 176.462 151.076 177.969C150.275 179.477 147.635 180.951 143.157 182.39L139.876 183.444L146.53 188.405C150.429 191.26 152.226 193.451 151.92 194.978C151.719 196.471 149.691 197.837 145.837 199.076C140.318 200.85 134.582 199.791 128.631 195.899C127.624 195.24 126.898 194.715 126.452 194.322L120.504 189.67C105.403 194.523 93.9004 198.175 85.9976 200.626C83.7064 201.362 80.7599 201.416 77.1582 200.788C73.5566 200.159 70.2909 198.887 67.3611 196.971C65.6215 195.833 64.1549 194.519 62.9613 193.027C55.8247 183.89 49.3772 172.97 43.6187 160.264C42.3931 157.533 42.1288 155.43 42.8259 153.956C43.5355 152.388 46.0254 150.918 50.2955 149.546C52.5868 148.81 54.7631 148.557 56.8243 148.787C58.9896 148.984 60.8047 149.562 62.2696 150.52C63.8261 151.538 64.8618 152.723 65.3767 154.075C71.5586 168.073 77.6021 179.035 83.5073 186.96L107.566 179.228C100.301 173.258 93.9166 167.407 88.4131 161.674C86.4081 159.55 85.6104 157.708 86.0202 156.148C86.3385 154.527 88.164 153.182 91.4968 152.11C96.8084 150.403 101.478 150.867 105.507 153.502C106.697 154.28 107.508 154.912 107.941 155.398C113.849 161.09 120.285 166.925 127.25 172.902L132.874 171.094Z" fill="#FF7300" fill-opacity="0.9"/>
<path d="M139.039 182.897L138.156 183.181L138.864 183.708L145.517 188.669L145.525 188.675C149.394 191.507 150.915 193.505 150.658 194.789L150.656 194.798L150.655 194.807C150.485 196.064 148.755 197.322 145.001 198.528C142.445 199.35 140.001 199.471 137.605 199.029C135.146 198.575 132.466 197.478 129.583 195.593C128.591 194.944 127.919 194.454 127.529 194.11L127.508 194.091L127.485 194.073L121.536 189.421L120.721 188.784L119.667 189.123C104.567 193.976 93.0697 197.626 85.1735 200.075L85.1734 200.074L85.1607 200.079C83.2031 200.708 80.6536 200.778 77.3416 200.2L77.1582 200.788L77.3416 200.2C74.099 199.634 71.0896 198.481 68.3131 196.665C66.6781 195.596 65.2802 194.348 64.1315 192.913C57.0298 183.82 50.6018 172.936 44.8542 160.256C43.6457 157.562 43.4254 155.566 44.0644 154.215L44.0645 154.215L44.0667 154.21C44.6943 152.824 46.9475 151.438 51.1325 150.093C53.2983 149.397 55.1793 149.216 56.8031 149.398L56.8304 149.401L56.8577 149.403C58.6366 149.565 60.0941 150.026 61.3176 150.826C62.7023 151.731 63.6525 152.803 64.1318 154.062L64.1355 154.071L64.1398 154.081C70.327 168.091 76.387 179.089 82.3266 187.06L82.985 187.944L84.3442 187.507L108.403 179.775L109.24 179.506L108.617 178.994C101.378 173.046 95.0206 167.219 89.5419 161.512C87.6154 159.471 86.9082 157.763 87.2783 156.353L87.2806 156.344L87.2824 156.335C87.5626 154.909 89.1704 153.674 92.3337 152.658C94.8743 151.841 97.0865 151.603 98.9948 151.792C100.856 151.977 102.704 152.597 104.555 153.808C105.718 154.568 106.438 155.141 106.796 155.542L106.815 155.563L106.836 155.584C112.757 161.288 119.206 167.134 126.183 173.122L126.979 173.805L128.087 173.449L133.711 171.641C136.359 170.79 138.664 170.534 140.651 170.724C142.585 170.909 144.49 171.543 146.382 172.781C149.542 174.847 150.507 176.449 149.845 177.696C149.136 179.029 146.734 180.424 142.32 181.843L139.039 182.897Z" stroke="#FF7300" stroke-opacity="0.9" stroke-width="2"/>
<path d="M244.129 140.152C247.541 139.055 250.521 139.34 253.068 141.006C255.105 142.338 255.876 143.47 255.381 144.402C254.886 145.334 253.254 146.245 250.485 147.135L248.457 147.787L252.57 150.854C254.981 152.618 256.092 153.973 255.903 154.917C255.778 155.84 254.525 156.684 252.142 157.45C248.73 158.547 245.184 157.892 241.506 155.486C240.883 155.079 240.434 154.754 240.159 154.511L236.482 151.636C227.146 154.636 220.035 156.893 215.15 158.408C213.734 158.864 211.912 158.897 209.686 158.508C207.459 158.12 205.44 157.333 203.629 156.149C202.554 155.446 201.647 154.633 200.909 153.711C196.497 148.063 192.512 141.311 188.952 133.457C188.194 131.769 188.031 130.469 188.462 129.557C188.9 128.588 190.44 127.68 193.079 126.831C194.496 126.376 195.841 126.22 197.115 126.362C198.454 126.484 199.576 126.841 200.482 127.433C201.444 128.062 202.084 128.795 202.402 129.631C206.224 138.285 209.96 145.061 213.611 149.96L228.483 145.18C223.992 141.49 220.046 137.873 216.643 134.329C215.404 133.016 214.911 131.877 215.164 130.912C215.361 129.911 216.489 129.079 218.55 128.417C221.833 127.361 224.72 127.648 227.21 129.277C227.946 129.758 228.448 130.149 228.715 130.449C232.367 133.968 236.346 137.575 240.652 141.269L244.129 140.152Z" fill="#FF7300" fill-opacity="0.9"/>
<path d="M247.62 147.239L246.737 147.523L247.445 148.051L251.558 151.117L251.558 151.118L251.566 151.123C253.946 152.865 254.781 154.027 254.641 154.728L254.639 154.737L254.638 154.746C254.545 155.433 253.588 156.169 251.306 156.903C249.803 157.385 248.434 157.439 247.133 157.199C245.769 156.947 244.205 156.323 242.458 155.18C241.851 154.783 241.456 154.494 241.236 154.299L241.214 154.281L241.191 154.262L237.514 151.387L236.699 150.749L235.645 151.088C226.31 154.088 219.205 156.344 214.326 157.857L214.326 157.857L214.313 157.861C213.23 158.209 211.806 158.259 209.869 157.921C208.002 157.595 206.239 156.927 204.581 155.843C203.61 155.208 202.772 154.462 202.079 153.597C197.703 147.993 193.736 141.279 190.187 133.449C189.447 131.798 189.327 130.605 189.7 129.816L189.7 129.816L189.702 129.812C190.059 129.024 191.362 128.2 193.916 127.379C195.207 126.964 196.257 126.879 197.094 126.973L197.122 126.976L197.149 126.979C198.101 127.065 198.865 127.305 199.53 127.739C200.32 128.256 200.875 128.875 201.157 129.618L201.161 129.627L201.165 129.637C204.992 138.302 208.745 145.115 212.43 150.061L213.088 150.944L214.447 150.507L229.32 145.728L230.157 145.459L229.535 144.947C225.07 141.278 221.149 137.685 217.772 134.167C216.611 132.937 216.208 131.932 216.422 131.118L216.424 131.109L216.426 131.1C216.585 130.292 217.496 129.572 219.386 128.964C220.913 128.473 222.173 128.353 223.189 128.454C224.159 128.551 225.177 128.875 226.258 129.583C226.967 130.046 227.378 130.377 227.57 130.593L227.589 130.614L227.611 130.635C231.275 134.166 235.267 137.784 239.585 141.49L240.381 142.173L241.489 141.817L244.966 140.699C246.56 140.187 247.878 140.056 248.944 140.158C249.959 140.255 251.01 140.589 252.116 141.311C254.017 142.555 254.506 143.458 254.149 144.129C253.747 144.887 252.353 145.719 249.648 146.588L247.62 147.239Z" stroke="#FF7300" stroke-opacity="0.9" stroke-width="2"/>
<ellipse cx="167.864" cy="157.63" rx="18.4658" ry="35.167" transform="rotate(-63.5092 167.864 157.63)" fill="#FF7300" fill-opacity="0.1"/>
<path d="M175.655 141.998C184.231 146.272 191.04 151.947 195.133 157.621C199.257 163.337 200.47 168.805 198.444 172.87C196.418 176.935 191.321 179.259 184.274 179.409C177.28 179.557 168.65 177.536 160.073 173.262C151.497 168.988 144.687 163.313 140.595 157.639C136.471 151.923 135.258 146.455 137.284 142.39C139.31 138.325 144.406 136.001 151.453 135.852C158.447 135.703 167.078 137.724 175.655 141.998Z" stroke="#FF7300" stroke-opacity="0.9" stroke-width="2"/>
<path d="M133.928 123.899L151.361 167.481L154.366 169.666L159.011 172.398L163.109 174.038L143.434 123.099C143.272 122.678 142.867 122.4 142.415 122.4L134.943 122.4C134.17 122.4 133.641 123.181 133.928 123.899Z" fill="#FF7300" fill-opacity="0.1" stroke="#FF7300" stroke-opacity="0.9" stroke-width="2"/>
<path d="M153.49 114.265L179.385 178.936C179.457 179.117 179.621 179.246 179.815 179.273L181.376 179.496C181.402 179.5 181.427 179.502 181.453 179.502L185.239 179.502L187.383 179.234C187.411 179.23 187.439 179.225 187.466 179.217L189.338 178.682L190.749 178.077C191.026 177.959 191.155 177.638 191.037 177.361L163.854 113.394C163.765 113.184 163.554 113.051 163.325 113.062L153.971 113.516C153.596 113.534 153.351 113.916 153.49 114.265Z" fill="#FF7300" fill-opacity="0.1" stroke="#FF7300" stroke-opacity="0.9" stroke-width="2"/>
<path d="M146.252 130.412L162.048 125.344C163.444 124.897 164.938 125.665 165.386 127.061C165.834 128.457 165.065 129.951 163.669 130.399L147.874 135.467L146.252 130.412Z" fill="#FF7300" fill-opacity="0.9"/>
<path d="M147.51 131.059L162.353 126.297C163.223 126.017 164.155 126.496 164.434 127.366C164.713 128.236 164.234 129.168 163.364 129.447L148.52 134.209L147.51 131.059Z" stroke="#FF7300" stroke-opacity="0.9" stroke-width="2"/>
<path d="M152.373 146.274L167.891 140.409C169.262 139.891 170.794 140.583 171.312 141.954C171.83 143.325 171.139 144.857 169.767 145.375L154.25 151.239L152.373 146.274Z" fill="#FF7300" fill-opacity="0.9"/>
<path d="M153.662 146.856L168.244 141.345C169.099 141.022 170.054 141.453 170.376 142.307C170.699 143.162 170.268 144.117 169.414 144.44L154.832 149.95L153.662 146.856Z" stroke="#FF7300" stroke-opacity="0.9" stroke-width="2"/>
<path d="M158.719 161.434L172.511 155.738C173.866 155.178 175.418 155.823 175.978 157.178C176.537 158.533 175.892 160.085 174.538 160.644L160.746 166.341L158.719 161.434Z" fill="#FF7300" fill-opacity="0.9"/>
<path d="M160.025 161.977L172.893 156.662C173.737 156.313 174.705 156.715 175.053 157.56C175.402 158.404 175 159.371 174.156 159.72L161.288 165.035L160.025 161.977Z" stroke="#FF7300" stroke-opacity="0.9" stroke-width="2"/>
</svg>
