<svg width="144" height="36" viewBox="0 0 144 36" fill="none" xmlns="http://www.w3.org/2000/svg">
<g clip-path="url(#clip0_664_1234)">
<path d="M48.2457 8.44257C48.2564 9.18583 48.1252 9.9243 47.8591 10.6184C47.6202 11.2385 47.2525 11.8008 46.7802 12.2682C46.3151 12.7262 45.7571 13.0788 45.1438 13.3022C44.4876 13.5437 43.793 13.664 43.0939 13.6574C42.2123 13.6965 41.3344 13.5207 40.5359 13.1449V19.0789H39.3266C39.1005 19.0786 38.8759 19.0422 38.6613 18.971C38.4358 18.8946 38.2311 18.7669 38.0634 18.5979C37.8678 18.4055 37.7147 18.1743 37.6139 17.9191C37.4935 17.5896 37.437 17.2402 37.4475 16.8896V4.40111C37.6588 4.32918 37.933 4.24826 38.2747 4.16285C38.6163 4.07743 38.9715 3.99651 39.3401 3.92908C39.7088 3.86165 40.0819 3.80321 40.455 3.75825C40.7759 3.72052 41.0985 3.69951 41.4215 3.69532H43.1568C43.8553 3.68788 44.5505 3.79261 45.2158 4.00551C45.807 4.19138 46.3534 4.49748 46.8206 4.90461C47.2749 5.32015 47.6312 5.83148 47.8636 6.40161C48.1276 7.04912 48.2576 7.74342 48.2457 8.44257ZM45.0989 8.7123C45.0989 7.83568 44.9146 7.2108 44.5414 6.83318C44.2995 6.6292 44.0197 6.47496 43.7181 6.37931C43.4165 6.28365 43.0989 6.24845 42.7837 6.27574H41.8082C41.5916 6.2793 41.376 6.30644 41.1653 6.35665C40.927 6.4106 40.7158 6.45106 40.5449 6.48253V10.8072C40.8719 10.8918 41.2036 10.9563 41.5384 11.0005C41.9258 11.0528 42.3164 11.0784 42.7073 11.0769C43.0336 11.0988 43.361 11.0547 43.6699 10.9474C43.9788 10.84 44.263 10.6716 44.5055 10.4521C44.7163 10.2165 44.8781 9.9414 44.9815 9.64271C45.0849 9.34403 45.1279 9.02775 45.1079 8.7123H45.0989Z" fill="#1E80B8"/>
<path d="M57.4167 9.95303C57.1708 9.86038 56.9202 9.78085 56.6659 9.71477C56.3406 9.63737 56.0068 9.60113 55.6724 9.60687C55.3895 9.58772 55.1057 9.63048 54.841 9.73219C54.5762 9.8339 54.3368 9.9921 54.1395 10.1958C53.7843 10.5869 53.6045 11.2432 53.6045 12.1648V19.0789H52.7773C52.2041 19.1102 51.6384 18.9365 51.1814 18.5889C50.9798 18.4128 50.8214 18.1927 50.7185 17.9456C50.6156 17.6985 50.571 17.431 50.588 17.1638V11.6299C50.5874 11.0367 50.6707 10.4464 50.8353 9.8766C50.9859 9.32691 51.2509 8.81524 51.613 8.37511C51.9899 7.92935 52.4614 7.57308 52.9931 7.33215C53.6333 7.04723 54.3291 6.909 55.0296 6.92755C55.4254 6.91686 55.8198 6.97778 56.1939 7.10737C56.4776 7.20446 56.739 7.3573 56.9626 7.55692C57.1564 7.73162 57.3098 7.94638 57.4122 8.18629C57.4988 8.40695 57.5445 8.64155 57.5471 8.8786V9.95303H57.4167Z" fill="#1E80B8"/>
<path d="M63.3868 4.4236C63.3894 4.65551 63.344 4.88546 63.2535 5.09899C63.163 5.31252 63.0293 5.50501 62.8608 5.66436C62.6976 5.83626 62.4999 5.97161 62.2806 6.0615C62.0613 6.15138 61.8254 6.19376 61.5886 6.18584C61.3597 6.18876 61.1327 6.14388 60.9222 6.05409C60.7116 5.9643 60.5221 5.83156 60.3658 5.66436C60.1993 5.5039 60.0676 5.311 59.9787 5.09758C59.8897 4.88417 59.8455 4.65478 59.8488 4.4236C59.8462 4.19585 59.8908 3.97003 59.9798 3.76035C60.0688 3.55068 60.2002 3.36171 60.3658 3.20532C60.5258 3.04512 60.7167 2.91908 60.9269 2.83485C61.1371 2.75062 61.3622 2.70995 61.5886 2.71531C61.8193 2.71226 62.0483 2.75611 62.2615 2.84421C62.4748 2.9323 62.668 3.06281 62.8293 3.2278C62.9999 3.37769 63.1376 3.56137 63.2335 3.76721C63.3295 3.97304 63.3817 4.19656 63.3868 4.4236ZM65.5311 17.3796C65.5798 17.8803 65.4315 18.3802 65.1175 18.7733C64.73 19.0844 64.2367 19.2327 63.7419 19.1868C63.2556 19.2195 62.7677 19.1513 62.309 18.9865C61.8502 18.8217 61.4305 18.5639 61.0761 18.2293C60.4123 17.4585 60.0795 16.4569 60.15 15.4421V7.30972H60.9996C61.2841 7.29253 61.5692 7.33174 61.8384 7.42509C62.1077 7.51844 62.3558 7.66409 62.5686 7.85367C62.7716 8.08029 62.9264 8.34576 63.0238 8.63399C63.1212 8.92222 63.159 9.22721 63.135 9.5305V15.1589C63.1065 15.3841 63.1289 15.6129 63.2005 15.8284C63.272 16.0439 63.391 16.2407 63.5486 16.4041C63.9715 16.667 64.469 16.7839 64.9647 16.7368H65.5311V17.3796Z" fill="#1E80B8"/>
<path d="M77.5072 19.0789C76.9229 19.1078 76.3504 18.9078 75.9113 18.5214C75.7153 18.3418 75.5608 18.1217 75.4583 17.8764C75.3558 17.6311 75.3079 17.3665 75.3179 17.1009V12.3491C75.3179 11.3211 75.1081 10.5719 74.6885 10.1014C74.4555 9.86466 74.1744 9.68075 73.8641 9.56209C73.5539 9.44343 73.2218 9.39277 72.8903 9.41355C72.5914 9.40354 72.2941 9.46145 72.0208 9.58292C71.7475 9.70439 71.5053 9.88626 71.3124 10.1148C70.8794 10.6866 70.6671 11.3953 70.7145 12.1109V19.0789H69.8154C69.5363 19.0928 69.2572 19.0507 68.9947 18.955C68.7321 18.8592 68.4915 18.7118 68.2869 18.5214C68.0975 18.3381 67.9491 18.1167 67.8514 17.8719C67.7538 17.627 67.7092 17.3642 67.7205 17.1009V11.9265C67.7209 11.2849 67.8303 10.6479 68.0441 10.0429C68.2594 9.43266 68.5924 8.87059 69.0242 8.38857C69.4923 7.87639 70.068 7.47417 70.71 7.21075C71.4819 6.89775 72.3093 6.74481 73.142 6.7612C73.8241 6.75682 74.5016 6.87404 75.1425 7.10736C75.7565 7.32559 76.3162 7.67366 76.7834 8.12783C77.2656 8.60308 77.6451 9.17228 77.8983 9.80016C78.1822 10.5151 78.3227 11.2788 78.3119 12.0479V19.0789H77.5072Z" fill="#1E80B8"/>
<path d="M81.8722 7.52546C81.8701 7.26986 81.8866 7.01444 81.9216 6.76123C81.9535 6.5609 82.0031 6.36382 82.07 6.17232C82.1356 5.99255 82.2264 5.82302 82.3397 5.66882C82.4476 5.51597 82.587 5.34065 82.7443 5.14285C82.9442 4.91508 83.1741 4.71546 83.4276 4.54944C83.6405 4.4018 83.8924 4.32046 84.1514 4.31567H84.8482V7.01298H89.011V8.24474C88.9873 8.60661 88.8266 8.94583 88.5615 9.1933C88.3838 9.36449 88.1715 9.49561 87.9388 9.57781C87.7062 9.66001 87.4586 9.69139 87.2128 9.66982H84.8302V14.4036C84.7695 15.0036 84.9453 15.6036 85.3202 16.0759C85.5131 16.2538 85.7413 16.3889 85.99 16.4726C86.2386 16.5562 86.5021 16.5865 86.7633 16.5614C87.5072 16.6132 88.2517 16.4675 88.9211 16.1389H89.011V17.2043C89.0234 17.4835 88.9705 17.7617 88.8566 18.0169C88.7426 18.272 88.5708 18.4971 88.3547 18.6743C87.775 19.0716 87.0776 19.2602 86.3767 19.2093C84.8482 19.2093 83.7108 18.8182 82.9736 18.0404C82.2363 17.2627 81.8677 16.1658 81.8677 14.7542L81.8722 7.52546Z" fill="#1E80B8"/>
<path d="M101.486 11.4366C101.523 11.909 101.413 12.3813 101.172 12.7891C100.93 13.1969 100.569 13.5205 100.138 13.7158C99.2385 14.1444 97.8044 14.3572 95.8354 14.3542H93.8754C93.9262 14.7133 94.0502 15.0581 94.2397 15.3674C94.4291 15.6767 94.68 15.9439 94.9767 16.1524C95.6356 16.6091 96.4231 16.8438 97.2245 16.8222C97.8803 16.8178 98.5335 16.7378 99.1711 16.5839C99.8177 16.4436 100.415 16.1332 100.902 15.6848H101.01V16.6514C101.015 17.0174 100.943 17.3805 100.798 17.7168C100.641 18.0657 100.391 18.3644 100.075 18.5799C99.6658 18.8567 99.2082 19.0535 98.726 19.1599C98.0512 19.3166 97.3596 19.389 96.6671 19.3756C95.9168 19.3739 95.1737 19.229 94.4777 18.9486C93.7797 18.6603 93.1445 18.2389 92.6076 17.7078C92.0395 17.1652 91.5816 16.518 91.259 15.8017C90.9171 15.015 90.747 14.1644 90.76 13.3067C90.7532 12.3884 90.9053 11.4759 91.2095 10.6094C91.4717 9.84716 91.8844 9.14543 92.4233 8.54596C92.9387 7.96637 93.5779 7.51006 94.2934 7.2108C95.0427 6.90655 95.8449 6.75376 96.6536 6.76125C97.2676 6.75997 97.8768 6.86962 98.4518 7.08493C99.0163 7.28514 99.5379 7.59019 99.9892 7.98403C100.442 8.39605 100.806 8.89629 101.059 9.45406C101.348 10.0746 101.494 10.7521 101.486 11.4366ZM98.6765 11.0769C98.6926 10.8188 98.6448 10.5608 98.5374 10.3255C98.43 10.0903 98.2662 9.88516 98.0607 9.72828C97.5694 9.40629 96.9885 9.24886 96.4018 9.27873C96.0593 9.27665 95.7204 9.34873 95.4083 9.49002C95.1131 9.62661 94.8451 9.81546 94.6171 10.0475C94.3878 10.278 94.2087 10.5535 94.0911 10.8567C93.9678 11.1694 93.8979 11.5007 93.8843 11.8367L93.8619 12.2368H95.2105C95.9298 12.2368 96.5097 12.2368 96.9593 12.1738C97.3178 12.1459 97.6722 12.078 98.0157 11.9715C98.2267 11.912 98.4128 11.7859 98.5462 11.6119C98.6429 11.4509 98.6883 11.2643 98.6765 11.0769Z" fill="#1E80B8"/>
<path d="M111.165 9.95303C110.919 9.86038 110.668 9.78085 110.414 9.71477C110.09 9.63737 109.758 9.60112 109.425 9.60687C109.142 9.58802 108.858 9.63093 108.594 9.73262C108.329 9.83431 108.09 9.99235 107.892 10.1958C107.537 10.5869 107.362 11.2432 107.362 12.1648V19.0789H106.543C105.97 19.1102 105.404 18.9365 104.948 18.5889C104.746 18.4128 104.588 18.1927 104.485 17.9456C104.382 17.6985 104.337 17.431 104.354 17.1638V11.6299C104.354 11.0371 104.436 10.4471 104.597 9.8766C104.749 9.32769 105.014 8.81642 105.375 8.37511C105.753 7.92926 106.226 7.57303 106.759 7.33215C107.399 7.04723 108.095 6.909 108.796 6.92755C109.191 6.91686 109.586 6.97778 109.96 7.10737C110.244 7.20446 110.505 7.3573 110.729 7.55692C110.913 7.73367 111.058 7.9484 111.151 8.18629C111.238 8.40695 111.284 8.64155 111.286 8.8786V9.95303H111.165Z" fill="#1E80B8"/>
<path d="M123.244 8.46501C123.199 8.89749 123.121 9.32586 123.01 9.74622C122.797 10.6033 122.533 11.4469 122.219 12.2727C122.006 12.8241 121.773 13.4131 121.518 14.0394C121.257 14.6598 120.983 15.2802 120.682 15.8871C120.38 16.494 120.07 17.0919 119.729 17.6853C119.387 18.2787 119.063 18.7732 118.735 19.2317H118.16C117.778 19.2471 117.399 19.1552 117.067 18.9665C116.715 18.707 116.42 18.3781 116.2 18C115.734 17.2555 115.314 16.4839 114.941 15.6893C114.491 14.7902 114.091 13.8102 113.709 12.7987C113.327 11.7872 113.008 10.7757 112.743 9.7687C112.496 8.86967 112.331 7.95043 112.248 7.02195H113.857C114.084 7.00827 114.311 7.0411 114.524 7.11841C114.738 7.19572 114.933 7.31588 115.098 7.4715C115.373 7.72988 115.562 8.06528 115.642 8.43354C115.853 9.58519 116.128 10.7243 116.465 11.8456C116.847 13.0863 117.341 14.29 117.939 15.442C118.223 14.8756 118.497 14.2552 118.762 13.5899C119.027 12.9245 119.275 12.2412 119.508 11.495C119.742 10.7487 119.958 10.0205 120.124 9.24722C120.29 8.474 120.448 7.73673 120.574 6.9725H121.828C122.025 6.95113 122.225 6.9713 122.414 7.03169C122.602 7.09208 122.777 7.19137 122.925 7.32315C123.176 7.64781 123.29 8.05737 123.244 8.46501Z" fill="#1E80B8"/>
<path d="M134.991 14.9746C135 15.5755 134.887 16.1719 134.658 16.7278C134.447 17.2392 134.128 17.6991 133.723 18.0765C133.307 18.4614 132.818 18.7594 132.285 18.9531C131.697 19.1659 131.076 19.2709 130.451 19.2633H129.844C129.179 19.27 128.517 19.1714 127.884 18.9711C127.331 18.8027 126.813 18.5363 126.355 18.1844C125.938 17.8617 125.602 17.4471 125.372 16.973C125.142 16.4989 125.025 15.9781 125.029 15.4511C125.025 14.9371 125.13 14.4282 125.339 13.9586C125.566 13.4785 125.917 13.0674 126.355 12.7673C126.916 12.3891 127.543 12.1192 128.203 11.9716C129.123 11.7628 130.065 11.6662 131.008 11.6839H132.051V11.531C132.051 10.6814 131.844 10.1014 131.426 9.78676C130.837 9.4367 130.153 9.27952 129.471 9.33721C128.986 9.33146 128.502 9.37818 128.027 9.47657C127.649 9.55292 127.28 9.66894 126.926 9.82272C126.646 9.94234 126.381 10.0931 126.135 10.2723C125.958 10.4054 125.796 10.556 125.649 10.7218H125.541V9.75979C125.546 9.40973 125.625 9.06471 125.775 8.7483C125.951 8.3746 126.209 8.04566 126.53 7.78626C126.933 7.47091 127.39 7.23311 127.879 7.08496C128.533 6.8961 129.212 6.80669 129.893 6.81973C130.545 6.81668 131.194 6.90289 131.822 7.07597C132.421 7.23996 132.975 7.53993 133.44 7.95259C133.938 8.41031 134.321 8.9785 134.559 9.61143C134.862 10.4434 135.004 11.3251 134.977 12.2098L134.991 14.9746ZM132.073 13.8417H131.008C130.534 13.8341 130.06 13.8672 129.592 13.9406C129.278 13.9851 128.974 14.0824 128.693 14.2283C128.496 14.3355 128.339 14.5024 128.243 14.7048C128.154 14.9105 128.11 15.1327 128.113 15.3567C128.102 15.57 128.145 15.7826 128.238 15.975C128.33 16.1674 128.47 16.3335 128.643 16.4581C129.103 16.7451 129.64 16.8804 130.181 16.8447C131.458 16.8447 132.096 16.2288 132.096 14.997L132.073 13.8417Z" fill="#1E80B8"/>
<path d="M143.856 17.3797C143.882 17.6345 143.851 17.8919 143.765 18.133C143.678 18.3741 143.539 18.5929 143.357 18.7733C142.919 19.0787 142.389 19.2247 141.856 19.1869C140.606 19.1869 139.656 18.8677 139.006 18.2293C138.663 17.855 138.4 17.4149 138.232 16.9358C138.064 16.4567 137.996 15.9485 138.03 15.4421V3.02104H138.88C139.181 2.99372 139.484 3.0327 139.768 3.13522C140.053 3.23774 140.311 3.40132 140.525 3.61445C140.862 4.01519 141.039 4.5255 141.024 5.04851V15.1589C140.995 15.39 141.024 15.6247 141.108 15.842C141.192 16.0593 141.328 16.2524 141.505 16.4042C141.977 16.664 142.515 16.7797 143.052 16.7368H143.856V17.3797Z" fill="#1E80B8"/>
<path d="M38.2882 30.8661C37.9746 30.7493 37.6961 30.5543 37.479 30.2996L37.96 29.6523C38.143 29.8365 38.3558 29.9885 38.5894 30.1018C38.7939 30.2021 39.018 30.2558 39.2457 30.2592C39.4719 30.2672 39.6959 30.2127 39.8931 30.1018C39.9745 30.0518 40.0409 29.9806 40.0852 29.896C40.1295 29.8113 40.1501 29.7162 40.1448 29.6208C40.1479 29.5455 40.1355 29.4704 40.1084 29.4C40.0814 29.3297 40.0402 29.2656 39.9875 29.2117C39.8875 29.11 39.7662 29.0317 39.6324 28.9825C39.502 28.933 39.2817 28.8611 38.967 28.7667C38.1174 28.4924 37.6948 28.0114 37.6948 27.3146C37.6905 27.1147 37.7283 26.9162 37.8057 26.7318C37.8832 26.5475 37.9985 26.3815 38.1443 26.2447C38.4985 25.9309 38.9621 25.7694 39.4345 25.7951C39.7525 25.7909 40.0693 25.8348 40.3741 25.9255C40.65 26.0181 40.9061 26.1615 41.1294 26.3481L40.6798 27.0314C40.5426 26.8905 40.3772 26.7802 40.1943 26.7077C40.0179 26.6308 39.829 26.5867 39.6368 26.5774C39.4317 26.5718 39.2296 26.6282 39.0569 26.7392C38.9809 26.7862 38.9187 26.8527 38.8768 26.9317C38.835 27.0107 38.8149 27.0994 38.8187 27.1888C38.8161 27.2589 38.8285 27.3288 38.8548 27.3939C38.8811 27.4589 38.9209 27.5177 38.9715 27.5664C39.0656 27.6604 39.177 27.7352 39.2997 27.7867C39.4121 27.8271 39.6323 27.9035 39.9605 28.0069C40.3138 28.1103 40.6395 28.2916 40.9136 28.5374C41.0322 28.6536 41.1243 28.7941 41.1833 28.9494C41.2422 29.1046 41.2668 29.2708 41.2552 29.4365C41.2593 29.6516 41.2182 29.8652 41.1346 30.0635C41.051 30.2617 40.9267 30.4402 40.7697 30.5874C40.3688 30.9155 39.8568 31.0765 39.3401 31.0369C38.982 31.0443 38.6256 30.9864 38.2882 30.8661Z" fill="#606060"/>
<path d="M48.1469 26.0919C48.5288 26.3165 48.8403 26.6435 49.046 27.036C49.2686 27.4694 49.3799 27.9514 49.3697 28.4386C49.3791 28.9198 49.2596 29.3948 49.0235 29.8142C48.7933 30.198 48.46 30.5095 48.0615 30.7133C47.6447 30.9287 47.182 31.0398 46.7128 31.037C46.3549 31.0383 46.0014 30.9584 45.6789 30.8032C45.3675 30.6615 45.0958 30.4453 44.8877 30.1738V33.3207H43.7368V25.8896H44.7123L44.8067 26.7303C45.0597 26.4433 45.3648 26.2068 45.7058 26.0335C46.0669 25.8575 46.4641 25.7682 46.8657 25.7727C47.3142 25.7575 47.758 25.8681 48.1469 26.0919ZM47.3377 29.9311C47.602 29.7873 47.8237 29.5764 47.9806 29.3197C48.1392 29.0567 48.2217 28.7547 48.2188 28.4476C48.2268 28.1336 48.1508 27.8232 47.9986 27.5485C47.8549 27.2874 47.6431 27.0702 47.3859 26.9198C47.1287 26.7694 46.8355 26.6915 46.5375 26.6943C46.1456 26.6843 45.7619 26.8079 45.4496 27.045C45.1467 27.2857 44.937 27.6242 44.8562 28.0025V28.8297C44.9121 29.2017 45.1063 29.5389 45.4002 29.7737C45.7 30.0196 46.0779 30.1504 46.4656 30.1424C46.7683 30.1509 47.0683 30.0829 47.3377 29.9446V29.9311Z" fill="#606060"/>
<path d="M51.8827 23.7407C52.0063 23.629 52.1658 23.5652 52.3323 23.5609C52.4994 23.5623 52.6599 23.6265 52.7819 23.7407C52.8452 23.797 52.8957 23.8663 52.9298 23.9439C52.964 24.0215 52.981 24.1055 52.9797 24.1903C52.9822 24.2752 52.9658 24.3596 52.9316 24.4374C52.8973 24.5152 52.8462 24.5843 52.7819 24.6398C52.6603 24.7554 52.4999 24.8211 52.3323 24.8242C52.1653 24.8182 52.0058 24.7529 51.8827 24.6398C51.8171 24.5852 51.7647 24.5163 51.7297 24.4384C51.6946 24.3605 51.6778 24.2757 51.6804 24.1903C51.6788 24.105 51.696 24.0205 51.731 23.9427C51.766 23.865 51.8178 23.796 51.8827 23.7407ZM52.8807 25.9885V30.9515H51.7659V25.975L52.8807 25.9885Z" fill="#606060"/>
<path d="M58.9673 30.9156C58.6632 31.0179 58.3442 31.0696 58.0233 31.0684C57.5304 31.0786 57.0426 30.9674 56.6027 30.7447C56.2025 30.5434 55.8686 30.2313 55.6407 29.8456C55.4062 29.4257 55.2882 28.9508 55.299 28.47C55.2918 27.9958 55.4163 27.529 55.6587 27.1214C55.8925 26.7405 56.2249 26.4299 56.6207 26.2223C57.0179 26.0061 57.4631 25.8932 57.9154 25.8941C58.5993 25.8693 59.2694 26.0911 59.8035 26.519L59.2371 27.2562C59.0678 27.1281 58.8817 27.0237 58.6841 26.946C58.4707 26.8625 58.2435 26.8198 58.0143 26.8202C57.7275 26.8184 57.4458 26.8962 57.2006 27.0449C56.9715 27.1798 56.7799 27.3699 56.6432 27.5979C56.5015 27.8601 56.4288 28.154 56.4319 28.452C56.4295 28.7502 56.5071 29.0436 56.6567 29.3017C56.8023 29.556 57.0114 29.7682 57.2636 29.9176C57.5304 30.0695 57.8331 30.1471 58.1402 30.1423C58.5278 30.1508 58.9063 30.0236 59.2101 29.7827L59.79 30.4795C59.5445 30.6735 59.2657 30.8213 58.9673 30.9156Z" fill="#606060"/>
<path d="M65.657 29.6883L66.1739 30.52C65.9067 30.697 65.6162 30.8362 65.3108 30.9335C64.9271 31.0582 64.5224 31.1053 64.1203 31.0721C63.7182 31.0389 63.3268 30.9261 62.9687 30.7402C62.5679 30.5223 62.2373 30.1949 62.0156 29.7962C61.7887 29.3833 61.6725 28.9187 61.6784 28.4475C61.6726 27.9729 61.7986 27.506 62.0426 27.0989C62.2882 26.6956 62.6355 26.3638 63.0496 26.1368C63.4762 25.9019 63.9562 25.7811 64.4432 25.7862C65.0407 25.7595 65.6264 25.9585 66.084 26.3436C66.5462 26.7643 66.8613 27.3221 66.9831 27.935L63.0406 29.3152C63.1789 29.5592 63.3809 29.7612 63.625 29.8996C63.8805 30.0413 64.169 30.1127 64.4612 30.1064C64.894 30.0971 65.3126 29.9507 65.657 29.6883ZM63.2294 27.1528C62.9257 27.4879 62.7645 27.9281 62.7798 28.3801C62.7798 28.5015 62.7798 28.5914 62.7798 28.6543L65.6794 27.5889C65.5745 27.3245 65.4044 27.091 65.1849 26.9101C64.9455 26.7386 64.6566 26.6502 64.3623 26.6583C64.1499 26.6519 63.9386 26.6915 63.7431 26.7746C63.5475 26.8576 63.3722 26.9821 63.2294 27.1393V27.1528Z" fill="#606060"/>
<path d="M78.5861 25.975V30.9515H77.5746L77.5027 29.9985C77.3288 30.3438 77.0567 30.6301 76.7205 30.8211C76.366 31.0368 75.9576 31.1474 75.5427 31.1403C75.1283 31.155 74.7248 31.0065 74.4188 30.7267C74.2759 30.5868 74.1625 30.4196 74.0852 30.235C74.008 30.0505 73.9686 29.8523 73.9692 29.6523V25.975H75.0751V29.2387C75.0784 29.4824 75.1657 29.7174 75.3224 29.904C75.4086 29.9917 75.5126 30.0599 75.6274 30.1041C75.7421 30.1483 75.865 30.1674 75.9877 30.1603C76.2561 30.1619 76.5179 30.0768 76.734 29.9175C76.968 29.7413 77.1523 29.5074 77.269 29.2387C77.4025 28.9357 77.47 28.6078 77.4668 28.2767V25.975H78.5861Z" fill="#606060"/>
<path d="M85.864 26.0919C86.2459 26.3165 86.5574 26.6435 86.7631 27.0359C86.9857 27.4694 87.0969 27.9514 87.0868 28.4385C87.0962 28.9198 86.9767 29.3947 86.7406 29.8142C86.5104 30.198 86.1771 30.5095 85.7786 30.7133C85.3551 30.9322 84.8841 31.0434 84.4074 31.0369C84.0495 31.0383 83.696 30.9583 83.3735 30.8032C83.0621 30.6614 82.7904 30.4453 82.5823 30.1738V33.3207H81.4629V25.8896H82.4384L82.5328 26.7303C82.7864 26.4439 83.0913 26.2075 83.4319 26.0335C83.7948 25.858 84.1932 25.7688 84.5963 25.7727C85.0402 25.76 85.479 25.8705 85.864 26.0919ZM85.0548 29.9311C85.3181 29.7859 85.5395 29.5753 85.6977 29.3197C85.8563 29.0566 85.9388 28.7547 85.9359 28.4475C85.9439 28.1336 85.8679 27.8232 85.7156 27.5484C85.5741 27.2887 85.3642 27.0727 85.1087 26.9236C84.8503 26.7706 84.5549 26.6913 84.2546 26.6943C83.8626 26.6835 83.4786 26.8073 83.1667 27.0449C82.8638 27.2856 82.654 27.6241 82.5733 28.0025V28.8297C82.6291 29.2016 82.8234 29.5388 83.1172 29.7737C83.4171 30.0196 83.7949 30.1503 84.1827 30.1423C84.4778 30.1471 84.7696 30.0792 85.0323 29.9445L85.0548 29.9311Z" fill="#606060"/>
<path d="M98.9009 25.975L95.6911 33.3386H94.5852L95.7271 30.7807L93.4209 25.975H94.6841L96.2935 29.5174L97.867 25.975H98.9009Z" fill="#606060"/>
<path d="M100.762 27.0719C100.997 26.67 101.338 26.3403 101.747 26.1188C102.183 25.8827 102.672 25.7634 103.168 25.7727C103.66 25.7616 104.147 25.881 104.579 26.1188C104.982 26.3396 105.315 26.668 105.541 27.0674C105.768 27.4806 105.887 27.9445 105.887 28.416C105.887 28.8875 105.768 29.3514 105.541 29.7647C105.316 30.1689 104.981 30.5009 104.575 30.7222C104.136 30.958 103.643 31.0772 103.145 31.0684C102.656 31.0766 102.173 30.9639 101.738 30.7402C101.332 30.5281 100.993 30.2056 100.762 29.8096C100.52 29.3858 100.397 28.9041 100.407 28.416C100.402 27.9441 100.525 27.4796 100.762 27.0719ZM101.747 29.2927C101.881 29.5478 102.079 29.7634 102.322 29.9175C102.566 30.0663 102.846 30.1442 103.132 30.1423C103.35 30.1498 103.567 30.1099 103.768 30.0253C103.969 29.9407 104.149 29.8134 104.296 29.6523C104.6 29.3177 104.762 28.8771 104.745 28.425C104.76 27.9718 104.599 27.5305 104.296 27.1933C104.049 26.9279 103.718 26.7563 103.359 26.7079C103 26.6596 102.635 26.7374 102.327 26.928C102.084 27.0858 101.888 27.3043 101.756 27.5619C101.617 27.8293 101.545 28.1261 101.545 28.4273C101.545 28.7285 101.617 29.0253 101.756 29.2927H101.747Z" fill="#606060"/>
<path d="M112.913 25.975V30.9515H111.906L111.835 29.9985C111.654 30.3437 111.378 30.6294 111.039 30.8211C110.684 31.0361 110.276 31.1467 109.861 31.1403C109.447 31.156 109.043 31.0073 108.737 30.7267C108.594 30.5868 108.481 30.4196 108.404 30.235C108.326 30.0505 108.287 29.8523 108.288 29.6523V25.975H109.407V29.2387C109.408 29.4827 109.496 29.7184 109.654 29.904C109.74 29.9922 109.844 30.0607 109.959 30.1049C110.074 30.1491 110.197 30.168 110.32 30.1603C110.588 30.1613 110.849 30.0762 111.066 29.9175C111.299 29.74 111.483 29.5065 111.601 29.2387C111.734 28.9357 111.802 28.6078 111.799 28.2767V25.975H112.913Z" fill="#606060"/>
<path d="M117.391 26.429C117.614 26.2305 117.867 26.0695 118.142 25.9525C118.361 25.8498 118.597 25.7888 118.839 25.7727L118.789 26.8876C118.449 26.8675 118.11 26.9422 117.809 27.1034C117.522 27.2574 117.286 27.4897 117.126 27.7732C116.964 28.0451 116.878 28.3558 116.879 28.6723V30.947H115.764V25.975H116.757L116.843 27.1528C116.974 26.8768 117.161 26.6305 117.391 26.429Z" fill="#606060"/>
<path d="M126.998 21.6368V30.9515H125.874V21.6368H126.998Z" fill="#606060"/>
<path d="M129.965 23.7407C130.088 23.6276 130.248 23.5636 130.415 23.5609C130.582 23.5609 130.743 23.6253 130.864 23.7407C130.929 23.7962 130.98 23.8654 131.014 23.9432C131.048 24.0209 131.065 24.1054 131.062 24.1903C131.066 24.2753 131.05 24.3601 131.015 24.438C130.981 24.5159 130.929 24.585 130.864 24.6398C130.744 24.7565 130.583 24.8225 130.415 24.8242C130.247 24.8199 130.087 24.7543 129.965 24.6398C129.9 24.5852 129.847 24.5163 129.812 24.4384C129.777 24.3605 129.76 24.2757 129.763 24.1903C129.761 24.105 129.779 24.0205 129.814 23.9427C129.849 23.865 129.9 23.796 129.965 23.7407ZM130.963 25.9885V30.9515H129.844V25.975L130.963 25.9885Z" fill="#606060"/>
<path d="M134.218 26.991H133.364V25.9616H134.218V23.8711C134.18 23.2769 134.355 22.6885 134.712 22.2123C134.895 22.0146 135.119 21.8603 135.369 21.7607C135.618 21.6611 135.887 21.6188 136.155 21.6369C136.345 21.6395 136.534 21.6651 136.717 21.7133C136.905 21.7598 137.084 21.8357 137.248 21.9381L136.767 22.7518C136.701 22.687 136.622 22.6367 136.535 22.6042C136.448 22.5717 136.356 22.5577 136.263 22.563C136.131 22.5545 135.999 22.5784 135.879 22.6324C135.758 22.6865 135.653 22.7691 135.571 22.8731C135.39 23.178 135.309 23.5314 135.337 23.8846V25.9616H136.924V26.991H135.337V30.9695H134.218V26.991Z" fill="#606060"/>
<path d="M142.548 29.6883L143.061 30.52C142.795 30.6979 142.506 30.8371 142.202 30.9336C141.818 31.0582 141.414 31.1053 141.011 31.0721C140.609 31.0389 140.218 30.9261 139.86 30.7403C139.459 30.5223 139.128 30.1949 138.907 29.7962C138.68 29.3833 138.564 28.9187 138.57 28.4476C138.564 27.973 138.69 27.5061 138.934 27.0989C139.178 26.6962 139.524 26.3645 139.936 26.1369C140.365 25.9023 140.846 25.7816 141.334 25.7862C141.926 25.764 142.504 25.9627 142.957 26.3437C143.419 26.7643 143.734 27.3221 143.856 27.9351L139.914 29.3152C140.052 29.5593 140.254 29.7613 140.498 29.8996C140.754 30.0414 141.042 30.1127 141.334 30.1064C141.773 30.1009 142.199 29.9543 142.548 29.6883ZM140.121 27.1529C139.817 27.488 139.656 27.9282 139.671 28.3801C139.671 28.5015 139.671 28.5914 139.671 28.6544L142.571 27.5889C142.461 27.3226 142.284 27.0889 142.058 26.9101C141.819 26.7386 141.53 26.6502 141.235 26.6584C141.026 26.6545 140.818 26.6954 140.626 26.7784C140.434 26.8613 140.261 26.9844 140.121 27.1394V27.1529Z" fill="#606060"/>
<path d="M21.5333 0.467495L20.3285 0.0179443L18.2111 5.22823C11.1757 2.64332 3.48835 5.64182 0.898939 12.1019C-1.69047 18.5619 1.69914 26.0604 8.5413 29.0949L6.41942 34.3861L7.6422 34.8716C12.1745 36.5674 17.1899 36.4258 21.6192 34.4769C26.0486 32.528 29.5414 28.926 31.3532 24.4388C33.165 19.9516 33.1523 14.9342 31.3179 10.4563C29.4835 5.97828 25.9724 2.39399 21.5333 0.467495ZM16.7141 8.93703L13.5673 16.6738L5.09774 13.2572C7.07127 9.17529 12.0748 7.30516 16.7141 8.93703ZM4.51782 14.952V15.0464L12.8705 18.4001L11.7331 21.2457L10.0563 25.3861C5.84399 23.4485 3.56477 19.0519 4.51782 14.952ZM10.2451 29.6883L14.5563 19.0834L25.3185 23.3946C23.9322 26.0349 21.6678 28.1085 18.9159 29.2575C16.164 30.4065 13.0973 30.5589 10.2451 29.6883ZM26.0738 21.7043L15.2846 17.3481L19.87 6.0599C22.619 7.47862 24.7617 9.8444 25.9021 12.7201C27.0424 15.5958 27.1034 18.7871 26.0738 21.7043Z" fill="#FF6600"/>
</g>
<defs>
<clipPath id="clip0_664_1234">
<rect width="143.856" height="36" fill="white"/>
</clipPath>
</defs>
</svg>
