<svg xmlns="http://www.w3.org/2000/svg" version="1.1" xmlns:xlink="http://www.w3.org/1999/xlink" width="512" height="512" x="0" y="0" viewBox="0 0 512 512" style="enable-background:new 0 0 512 512" xml:space="preserve" class=""><g><path d="M166 30h30c8.276 0 15-6.724 15-15V0h-60v15c0 8.276 6.724 15 15 15z" fill="#999999" opacity="1" data-original="#000000" class=""></path><path d="M211 346v-41.455l-16.582-8.291c-15.352-7.705-24.873-23.115-24.873-40.254s9.521-32.549 24.844-40.239L211 207.455V166c0-33.091 26.909-60 60-60h60V45c0-24.814-20.186-45-45-45h-45v15c0 24.814-20.186 45-45 45h-30c-24.814 0-45-20.186-45-45V0H76C51.186 0 31 20.186 31 45v422c0 24.814 20.186 45 45 45h210c24.814 0 45-20.186 45-45v-61h-60c-33.091 0-60-26.909-60-60zm-15 105h-30c-8.291 0-15-6.709-15-15s6.709-15 15-15h30c8.291 0 15 6.709 15 15s-6.709 15-15 15zM365.351 238.246 361 229.545l-4.351 8.701a15.027 15.027 0 0 1-11.191 8.13l-9.624 1.45 6.943 6.826a15.014 15.014 0 0 1 4.263 13.154l-1.597 9.595 8.643-4.482c2.168-1.128 4.541-1.685 6.914-1.685s4.746.557 6.914 1.685l8.643 4.482-1.597-9.595a15.01 15.01 0 0 1 4.263-13.154l6.943-6.826-9.624-1.45a15.023 15.023 0 0 1-11.191-8.13z" fill="#999999" opacity="1" data-original="#000000" class=""></path><path d="M451 136H271c-16.538 0-30 13.462-30 30v60l-33.164 16.582c-5.083 2.549-8.291 7.734-8.291 13.418s3.208 10.869 8.291 13.418L241 286v60c0 16.538 13.462 30 30 30h180c16.538 0 30-13.462 30-30V166c0-16.538-13.462-30-30-30zm-22.397 112.148-22.778 22.412 5.244 31.523a14.967 14.967 0 0 1-5.977 14.59 14.998 14.998 0 0 1-15.732 1.187L361 303.139l-28.359 14.722c-5.083 2.593-11.177 2.168-15.732-1.187a14.968 14.968 0 0 1-5.977-14.59l5.244-31.523-22.778-22.412c-4.043-3.999-5.493-9.932-3.735-15.322a15.024 15.024 0 0 1 12.041-10.21l31.597-4.746 14.282-28.579c5.098-10.166 21.738-10.166 26.836 0L388.7 217.87l31.597 4.746a15.024 15.024 0 0 1 12.041 10.21c1.758 5.391.308 11.323-3.735 15.322z" fill="#999999" opacity="1" data-original="#000000" class=""></path></g></svg>