<svg width="30" height="26" viewBox="0 0 30 26" fill="none" xmlns="http://www.w3.org/2000/svg">
<path d="M18.3241 3.8673C18.2735 3.84503 18.2182 3.83584 18.1631 3.84056C18.108 3.84528 18.055 3.86377 18.009 3.89432C17.9629 3.92487 17.9253 3.96651 17.8995 4.01541C17.8738 4.06431 17.8607 4.1189 17.8616 4.17416V6.81453C17.8616 7.1182 17.7409 7.40943 17.5262 7.62416C17.3115 7.83889 17.0202 7.95952 16.7166 7.95952C15.1891 7.95952 12.1068 7.97097 9.15957 9.8419C6.90622 11.2709 4.60249 13.8723 3.21704 18.7179C5.55284 16.4669 8.22068 15.2463 10.5565 14.5982C11.9922 14.2017 13.4677 13.9666 14.9556 13.8975C15.5646 13.8707 16.1746 13.8768 16.783 13.9158H16.8127L16.8242 13.9181L16.7166 15.0585L16.8311 13.9181C17.1137 13.9465 17.3757 14.0789 17.5661 14.2897C17.7565 14.5004 17.8618 14.7745 17.8616 15.0585V17.6989C17.8616 17.9462 18.1135 18.1019 18.3241 18.0057L27.4475 11.2892C27.4784 11.2662 27.5105 11.2448 27.5436 11.2251C27.5934 11.1951 27.6346 11.1528 27.6632 11.1023C27.6919 11.0517 27.7069 10.9946 27.7069 10.9365C27.7069 10.8784 27.6919 10.8213 27.6632 10.7708C27.6346 10.7202 27.5934 10.6779 27.5436 10.648C27.5105 10.6282 27.4784 10.6068 27.4475 10.5839L18.3241 3.8673ZM15.5716 16.1714C15.4158 16.1714 15.2441 16.1783 15.0609 16.1852C14.067 16.231 12.693 16.3821 11.1679 16.8058C8.13137 17.6485 4.53608 19.5583 2.14532 23.859C2.01604 24.0911 1.81003 24.271 1.56262 24.368C1.31521 24.4649 1.04179 24.4727 0.789223 24.3902C0.536657 24.3076 0.320673 24.1398 0.178282 23.9154C0.0358906 23.6911 -0.0240402 23.4242 0.00876045 23.1605C1.07132 14.6646 4.32769 10.1946 7.93214 7.90914C10.7832 6.10005 13.719 5.75197 15.5716 5.68556V4.17416C15.5713 3.70258 15.6984 3.23968 15.9394 2.83432C16.1804 2.42895 16.5263 2.09615 16.9407 1.87102C17.355 1.64589 17.8225 1.53679 18.2937 1.55523C18.765 1.57366 19.2225 1.71895 19.618 1.97577L28.7642 8.70835C29.1423 8.94438 29.4542 9.27275 29.6704 9.66256C29.8866 10.0524 30 10.4908 30 10.9365C30 11.3823 29.8866 11.8207 29.6704 12.2105C29.4542 12.6003 29.1423 12.9287 28.7642 13.1647L19.618 19.8973C19.2225 20.1541 18.765 20.2994 18.2937 20.3178C17.8225 20.3362 17.355 20.2271 16.9407 20.002C16.5263 19.7769 16.1804 19.4441 15.9394 19.0387C15.6984 18.6333 15.5713 18.1705 15.5716 17.6989V16.1714Z" fill="#FF7300"/>
</svg>
