<svg width="54" height="36" viewBox="0 0 54 36" fill="none" xmlns="http://www.w3.org/2000/svg">
<rect x="0.5" y="0.5" width="53" height="35" rx="7.5" fill="white"/>
<rect x="0.5" y="0.5" width="53" height="35" rx="7.5" stroke="#CCCCCC"/>
<g clip-path="url(#clip0_714_6387)">
<path d="M39.0004 18.0933C39.0004 22.1929 35.6837 25.5096 31.5841 25.5096C29.8537 25.5096 28.2674 24.9122 27.0107 23.9234C28.7412 22.5637 29.8331 20.4624 29.8331 18.0933C29.8331 15.7242 28.7206 13.6229 27.0107 12.2633C28.2674 11.2744 29.8537 10.677 31.5841 10.677C35.6837 10.677 39.0004 14.0143 39.0004 18.0933Z" fill="#F79E1B"/>
<path d="M27.0099 12.2632C27.0099 12.2632 27.0099 12.2632 27.0099 12.2632C28.7198 13.6228 29.8322 15.7241 29.8322 18.0932C29.8322 20.4623 28.7404 22.5636 27.0099 23.9233L26.9892 23.9233C25.2794 22.5842 24.167 20.4623 24.167 18.0933C24.167 15.7242 25.2794 13.6229 26.9893 12.2632C26.9893 12.2632 26.9893 12.2632 26.9893 12.2632L27.0099 12.2632Z" fill="#FF5F00"/>
<path d="M24.1674 18.0936C24.1674 15.7245 25.2798 13.6232 26.9897 12.2635C25.733 11.2747 24.1468 10.6772 22.4163 10.6772C18.3167 10.6772 15 13.994 15 18.0936C15 22.1931 18.3167 25.5099 22.4163 25.5099C24.1468 25.5099 25.733 24.9124 26.9897 23.9236C25.2798 22.5845 24.1674 20.4627 24.1674 18.0936Z" fill="#EB001B"/>
</g>
<defs>
<clipPath id="clip0_714_6387">
<rect width="24" height="14.8326" fill="white" transform="translate(15 10.677)"/>
</clipPath>
</defs>
</svg>
