<svg width="54" height="36" viewBox="0 0 54 36" fill="none" xmlns="http://www.w3.org/2000/svg">
<rect x="0.5" y="0.5" width="53" height="35" rx="7.5" fill="white"/>
<!-- <rect x="0.5" y="0.5" width="53" height="35" rx="7.5" stroke="#CCCCCC"/> -->
<path fill-rule="evenodd" clip-rule="evenodd" d="M32.4242 14.1533C32.4097 14.2476 32.3928 14.3439 32.374 14.4429C31.7252 17.7877 29.5053 18.9432 26.6704 18.9432H25.2269C24.8801 18.9432 24.5879 19.1959 24.534 19.5393L23.5856 25.5794C23.5505 25.8049 23.7236 26.008 23.9501 26.008H26.5104C26.8135 26.008 27.071 25.7869 27.1188 25.4867L27.1439 25.3562L27.6259 22.2847L27.6569 22.1163C27.7041 21.815 27.9622 21.5938 28.2653 21.5938H28.6482C31.1287 21.5938 33.0705 20.5827 33.6381 17.6565C33.8751 16.4342 33.7524 15.4136 33.125 14.6957C32.9352 14.4793 32.6997 14.2997 32.4242 14.1533Z" fill="#298FC2"/>
<path fill-rule="evenodd" clip-rule="evenodd" d="M31.7448 13.8815C31.6457 13.8525 31.5434 13.8262 31.4385 13.8024C31.333 13.7793 31.225 13.7588 31.1138 13.7408C30.7246 13.6777 30.2981 13.6477 29.8413 13.6477H25.9851C25.89 13.6477 25.7998 13.6692 25.7192 13.7082C25.5412 13.794 25.4091 13.9631 25.3771 14.1701L24.5567 19.3871L24.5332 19.5392C24.5871 19.1958 24.8793 18.9431 25.2261 18.9431H26.6696C29.5046 18.9431 31.7244 17.787 32.3732 14.4428C32.3926 14.3438 32.4089 14.2475 32.4235 14.1532C32.2594 14.0658 32.0816 13.991 31.8901 13.9272C31.8428 13.9115 31.7941 13.8963 31.7448 13.8815Z" fill="#22284F"/>
<path fill-rule="evenodd" clip-rule="evenodd" d="M25.3777 14.1701C25.4097 13.9632 25.5418 13.7941 25.7197 13.7088C25.801 13.6697 25.8906 13.6482 25.9857 13.6482H29.8419C30.2987 13.6482 30.7252 13.6783 31.1144 13.7414C31.2256 13.7593 31.3336 13.7799 31.4391 13.8031C31.544 13.8267 31.6462 13.8531 31.7454 13.882C31.7946 13.8968 31.8434 13.9121 31.8912 13.9273C32.0826 13.991 32.2605 14.0664 32.4246 14.1533C32.6177 12.9173 32.423 12.0757 31.7575 11.3136C31.0236 10.4745 29.6992 10.1155 28.0045 10.1155H23.0844C22.7383 10.1155 22.4429 10.3682 22.3895 10.7122L20.3402 23.7546C20.2998 24.0126 20.498 24.2453 20.7572 24.2453H23.7946L25.3777 14.1701Z" fill="#28356A"/>
</svg>
