<svg width="54" height="36" viewBox="0 0 54 36" fill="none" xmlns="http://www.w3.org/2000/svg">
<rect x="0.5" y="0.5" width="53" height="35" rx="7.5" fill="white"/>
<rect x="0.5" y="0.5" width="53" height="35" rx="7.5" stroke="#CCCCCC"/>
<path d="M32.1425 14.9281C31.8887 14.9267 31.6371 14.9753 31.4021 15.0713C31.1671 15.1673 30.9534 15.3087 30.7732 15.4874L30.6832 15.0439H29.1468V23.3496L30.8954 22.9703V20.9581C31.2431 21.2494 31.6824 21.4087 32.1361 21.4081C33.3832 21.4081 34.5275 20.386 34.5275 18.1231C34.5275 16.0531 33.3704 14.9281 32.1425 14.9281ZM31.7246 19.8331C31.5713 19.842 31.4179 19.8166 31.2755 19.7588C31.1332 19.7009 31.0055 19.6122 30.9018 19.4989V16.8567C31.006 16.7393 31.1351 16.6466 31.2797 16.5854C31.4242 16.5242 31.5807 16.4961 31.7375 16.5031C32.3804 16.5031 32.8175 17.2296 32.8175 18.1617C32.8175 19.0939 32.3739 19.8331 31.7246 19.8331Z" fill="#635BFF"/>
<path d="M37.7546 14.9281C36.0704 14.9281 35.0482 16.381 35.0482 18.2131C35.0482 20.3796 36.2568 21.4789 37.9796 21.4789C38.652 21.4898 39.316 21.3283 39.9082 21.0096V19.5631C39.3704 19.8345 38.7748 19.9713 38.1725 19.9617C37.4782 19.9617 36.8868 19.711 36.7968 18.8689H40.2554C40.2554 18.7724 40.2554 18.3931 40.2554 18.226C40.3132 16.381 39.4389 14.9281 37.7546 14.9281ZM36.8096 17.5446C36.8096 16.7346 37.3046 16.3939 37.7418 16.3939C38.1789 16.3939 38.6418 16.7346 38.6418 17.5446H36.8096Z" fill="#635BFF"/>
<path d="M24.4282 15.526L24.3189 14.9989H22.8275V21.241H24.5504V17.011C24.706 16.8221 24.9155 16.6852 25.151 16.6185C25.3865 16.5519 25.6367 16.5588 25.8682 16.6381V14.9989C25.6052 14.8958 25.3136 14.8926 25.0484 14.9897C24.7831 15.0868 24.5625 15.2775 24.4282 15.526Z" fill="#635BFF"/>
<path d="M15.7239 16.876C15.7239 16.5931 15.9553 16.4839 16.3218 16.4839C16.9291 16.4969 17.5243 16.6557 18.0575 16.9467V15.256C17.5063 15.0331 16.9163 14.9217 16.3218 14.9281C14.9011 14.9281 13.9561 15.6867 13.9561 16.9596C13.9561 18.9524 16.6175 18.631 16.6175 19.486C16.6175 19.8203 16.3346 19.9296 15.9746 19.9296C15.2954 19.8899 14.6349 19.6917 14.0461 19.351V21.0803C14.653 21.351 15.31 21.4912 15.9746 21.4917C17.4275 21.4917 18.4303 20.7524 18.4303 19.4603C18.3982 17.3003 15.7239 17.686 15.7239 16.876Z" fill="#635BFF"/>
<path d="M20.7511 13.5203L19.0475 13.8931V19.6339C19.0387 19.8758 19.0793 20.117 19.1669 20.3427C19.2545 20.5684 19.3872 20.7738 19.5569 20.9465C19.7265 21.1192 19.9296 21.2554 20.1538 21.347C20.3779 21.4385 20.6183 21.4834 20.8603 21.4789C21.2827 21.4977 21.7035 21.4162 22.0882 21.241V19.7946C21.8632 19.891 20.7639 20.2189 20.7639 19.1517V16.5803H22.0882V15.076H20.7639L20.7511 13.5203Z" fill="#635BFF"/>
<path d="M26.5175 14.4589L28.2725 14.0924V12.7039L26.5175 13.0703V14.4589Z" fill="#635BFF"/>
<path d="M28.2725 15.0439H26.5175V21.241H28.2725V15.0439Z" fill="#635BFF"/>
</svg>
