<svg width="54" height="36" viewBox="0 0 54 36" fill="none" xmlns="http://www.w3.org/2000/svg">
<rect x="0.5" y="0.5" width="53" height="35" rx="7.5" fill="white"/>
<rect x="0.5" y="0.5" width="53" height="35" rx="7.5" stroke="#CCCCCC"/>
<g clip-path="url(#clip0_714_6384)">
<path d="M32.924 13.8591C32.4806 13.6832 31.7773 13.489 30.9077 13.489C28.6878 13.489 27.1246 14.6728 27.115 16.3652C27.0966 17.6139 28.2342 18.3075 29.0851 18.7238C29.9548 19.1493 30.2505 19.4269 30.2505 19.8062C30.2416 20.3886 29.5477 20.6571 28.9005 20.6571C28.003 20.6571 27.5221 20.5187 26.7913 20.1946L26.4953 20.0557L26.1808 22.0073C26.708 22.2475 27.6793 22.4606 28.6878 22.47C31.0465 22.47 32.5821 21.3045 32.6003 19.501C32.6093 18.5113 32.0086 17.7529 30.7134 17.1333C29.9272 16.7355 29.4457 16.4673 29.4457 16.0603C29.4549 15.6902 29.8529 15.3113 30.7404 15.3113C31.4712 15.2927 32.0082 15.4684 32.4149 15.6442L32.6183 15.7365L32.924 13.8591Z" fill="url(#paint0_linear_714_6384)"/>
<path d="M24.775 22.3404H22.527L23.9331 13.6466H26.1809L24.775 22.3404Z" fill="url(#paint1_linear_714_6384)"/>
<path fill-rule="evenodd" clip-rule="evenodd" d="M38.6865 13.6466H36.9477C36.4115 13.6466 36.0041 13.8037 35.7728 14.3679L32.4337 22.3403H34.7924C34.7924 22.3403 35.1808 21.2673 35.2642 21.0362H38.1504C38.2149 21.3414 38.4186 22.3403 38.4186 22.3403H40.5L38.6865 13.6466ZM35.9117 19.2605C36.0968 18.7611 36.8092 16.828 36.8092 16.828C36.8054 16.8355 36.8344 16.7552 36.8776 16.6354L36.8781 16.634L36.8784 16.633C36.943 16.4541 37.0388 16.1886 37.1049 15.9957L37.262 16.7448C37.262 16.7448 37.6877 18.8258 37.7801 19.2605H35.9117Z" fill="url(#paint2_linear_714_6384)"/>
<path d="M20.6495 13.6466L18.448 19.575L18.2074 18.3726L18.2072 18.3719L17.4212 14.3774C17.2917 13.8221 16.894 13.6649 16.4037 13.6466H12.787L12.75 13.8223C13.6321 14.0478 14.4211 14.3729 15.1124 14.777L17.116 22.3312H19.4931L23.0265 13.6466H20.6495Z" fill="url(#paint3_linear_714_6384)"/>
</g>
<defs>
<linearGradient id="paint0_linear_714_6384" x1="12.75" y1="17.9984" x2="40.5" y2="17.9984" gradientUnits="userSpaceOnUse">
<stop stop-color="#222357"/>
<stop offset="1" stop-color="#254AA5"/>
</linearGradient>
<linearGradient id="paint1_linear_714_6384" x1="12.75" y1="17.9984" x2="40.5" y2="17.9984" gradientUnits="userSpaceOnUse">
<stop stop-color="#222357"/>
<stop offset="1" stop-color="#254AA5"/>
</linearGradient>
<linearGradient id="paint2_linear_714_6384" x1="12.75" y1="17.9984" x2="40.5" y2="17.9984" gradientUnits="userSpaceOnUse">
<stop stop-color="#222357"/>
<stop offset="1" stop-color="#254AA5"/>
</linearGradient>
<linearGradient id="paint3_linear_714_6384" x1="12.75" y1="17.9984" x2="40.5" y2="17.9984" gradientUnits="userSpaceOnUse">
<stop stop-color="#222357"/>
<stop offset="1" stop-color="#254AA5"/>
</linearGradient>
<clipPath id="clip0_714_6384">
<rect width="27.75" height="8.98096" fill="white" transform="translate(12.75 13.489)"/>
</clipPath>
</defs>
</svg>
